<?xml version="1.0" encoding="UTF-8"?>
<svg xmlns="http://www.w3.org/2000/svg" xmlns:xlink="http://www.w3.org/1999/xlink" width="374" height="225" viewBox="0 0 374 225">
<rect x="-37.4" y="-22.5" width="448.8" height="270" fill="rgb(100%, 100%, 100%)" fill-opacity="1"/>
<path fill="none" stroke-width="7.5" stroke-linecap="round" stroke-linejoin="round" stroke="rgb(0%, 0%, 0%)" stroke-opacity="1" stroke-miterlimit="10" d="M 13.851562 215.042969 L 14.199219 214.992188 L 14.546875 214.9375 L 14.890625 214.882812 L 15.238281 214.828125 L 15.933594 214.710938 L 16.277344 214.648438 L 16.972656 214.523438 L 17.316406 214.457031 L 17.664062 214.390625 L 18.359375 214.25 L 18.703125 214.179688 L 19.050781 214.105469 L 19.746094 213.949219 L 20.089844 213.871094 L 20.4375 213.789062 L 21.132812 213.617188 L 21.476562 213.53125 L 21.824219 213.441406 L 22.519531 213.253906 L 22.863281 213.15625 L 23.210938 213.058594 L 23.558594 212.957031 L 23.90625 212.851562 L 24.25 212.746094 L 24.945312 212.527344 L 25.292969 212.414062 L 25.636719 212.296875 L 25.984375 212.179688 L 26.332031 212.054688 L 26.675781 211.933594 L 27.371094 211.675781 L 27.71875 211.542969 L 28.0625 211.410156 L 29.105469 210.988281 L 29.449219 210.839844 L 29.796875 210.691406 L 30.492188 210.378906 L 30.835938 210.222656 L 31.53125 209.894531 L 31.878906 209.726562 L 32.222656 209.550781 L 32.570312 209.378906 L 32.917969 209.199219 L 33.265625 209.015625 L 33.609375 208.832031 L 34.304688 208.449219 L 34.652344 208.25 L 34.996094 208.050781 L 35.34375 207.847656 L 35.691406 207.640625 L 36.035156 207.429688 L 36.382812 207.214844 L 36.730469 206.996094 L 37.078125 206.773438 L 37.421875 206.546875 L 37.769531 206.316406 L 38.117188 206.082031 L 38.464844 205.84375 L 38.808594 205.605469 L 39.15625 205.359375 L 39.503906 205.109375 L 39.851562 204.855469 L 40.195312 204.597656 L 40.890625 204.066406 L 41.238281 203.796875 L 41.582031 203.523438 L 41.929688 203.246094 L 42.625 202.675781 L 42.96875 202.382812 L 43.664062 201.789062 L 44.011719 201.484375 L 44.355469 201.175781 L 44.703125 200.863281 L 45.050781 200.546875 L 45.394531 200.222656 L 45.742188 199.898438 L 46.089844 199.570312 L 46.4375 199.234375 L 46.78125 198.894531 L 47.476562 198.207031 L 47.824219 197.855469 L 48.167969 197.5 L 48.863281 196.773438 L 49.210938 196.40625 L 49.554688 196.03125 L 49.902344 195.65625 L 50.25 195.273438 L 50.597656 194.886719 L 50.941406 194.496094 L 51.636719 193.707031 L 51.984375 193.304688 L 52.328125 192.894531 L 52.675781 192.484375 L 53.023438 192.070312 L 53.371094 191.652344 L 53.714844 191.230469 L 54.0625 190.804688 L 54.410156 190.375 L 54.753906 189.941406 L 55.449219 189.058594 L 55.796875 188.613281 L 56.140625 188.164062 L 56.835938 187.257812 L 57.183594 186.796875 L 57.527344 186.332031 L 57.875 185.867188 L 58.222656 185.398438 L 58.570312 184.925781 L 58.914062 184.449219 L 59.609375 183.488281 L 59.957031 183 L 60.300781 182.515625 L 60.996094 181.53125 L 61.34375 181.035156 L 61.6875 180.535156 L 62.035156 180.035156 L 62.382812 179.53125 L 62.726562 179.023438 L 63.421875 178.007812 L 63.769531 177.496094 L 64.113281 176.980469 L 64.808594 175.949219 L 65.15625 175.429688 L 65.5 174.910156 L 65.847656 174.386719 L 66.195312 173.867188 L 66.542969 173.34375 L 66.886719 172.816406 L 67.234375 172.292969 L 67.929688 171.238281 L 68.273438 170.710938 L 69.316406 169.128906 L 69.660156 168.597656 L 70.703125 167.015625 L 71.046875 166.488281 L 71.394531 165.964844 L 71.742188 165.4375 L 72.085938 164.914062 L 72.433594 164.390625 L 72.78125 163.871094 L 73.128906 163.347656 L 73.472656 162.832031 L 73.820312 162.3125 L 74.167969 161.796875 L 74.515625 161.285156 L 74.859375 160.773438 L 75.554688 159.757812 L 75.902344 159.253906 L 76.246094 158.753906 L 76.59375 158.253906 L 76.941406 157.757812 L 77.289062 157.265625 L 77.632812 156.777344 L 77.980469 156.289062 L 78.328125 155.808594 L 78.675781 155.332031 L 79.019531 154.855469 L 79.714844 153.917969 L 80.0625 153.457031 L 80.40625 153 L 80.753906 152.546875 L 81.101562 152.101562 L 81.445312 151.65625 L 81.792969 151.21875 L 82.140625 150.785156 L 82.488281 150.359375 L 82.832031 149.9375 L 83.179688 149.519531 L 83.527344 149.109375 L 83.875 148.707031 L 84.21875 148.308594 L 84.566406 147.914062 L 84.914062 147.527344 L 85.261719 147.148438 L 85.605469 146.777344 L 85.953125 146.410156 L 86.300781 146.050781 L 86.648438 145.699219 L 86.992188 145.351562 L 87.339844 145.011719 L 87.6875 144.683594 L 88.035156 144.359375 L 88.378906 144.042969 L 88.726562 143.734375 L 89.074219 143.433594 L 89.421875 143.140625 L 89.765625 142.855469 L 90.113281 142.578125 L 90.460938 142.308594 L 90.804688 142.050781 L 91.152344 141.796875 L 91.5 141.554688 L 91.847656 141.320312 L 92.191406 141.09375 L 92.539062 140.875 L 92.886719 140.664062 L 93.234375 140.464844 L 93.578125 140.273438 L 93.925781 140.09375 L 94.273438 139.917969 L 94.621094 139.753906 L 94.964844 139.601562 L 95.3125 139.453125 L 95.660156 139.320312 L 96.007812 139.191406 L 96.351562 139.074219 L 96.699219 138.964844 L 97.046875 138.867188 L 97.394531 138.777344 L 97.738281 138.699219 L 98.085938 138.628906 L 98.433594 138.566406 L 98.78125 138.515625 L 99.125 138.476562 L 99.472656 138.445312 L 99.820312 138.421875 L 100.164062 138.410156 L 100.511719 138.40625 L 100.859375 138.414062 L 101.207031 138.433594 L 101.550781 138.457031 L 101.898438 138.496094 L 102.246094 138.539062 L 102.59375 138.59375 L 102.9375 138.660156 L 103.285156 138.734375 L 103.632812 138.820312 L 103.980469 138.910156 L 104.324219 139.015625 L 104.671875 139.125 L 105.019531 139.246094 L 105.367188 139.378906 L 105.710938 139.519531 L 106.058594 139.667969 L 106.40625 139.824219 L 106.753906 139.992188 L 107.097656 140.167969 L 107.445312 140.351562 L 107.792969 140.546875 L 108.140625 140.746094 L 108.484375 140.957031 L 108.832031 141.175781 L 109.179688 141.402344 L 109.523438 141.636719 L 109.871094 141.878906 L 110.21875 142.128906 L 110.566406 142.386719 L 110.910156 142.648438 L 111.257812 142.921875 L 111.605469 143.199219 L 111.953125 143.484375 L 112.296875 143.777344 L 112.644531 144.074219 L 112.992188 144.375 L 113.339844 144.683594 L 113.683594 144.996094 L 114.03125 145.3125 L 114.726562 145.960938 L 115.070312 146.292969 L 115.417969 146.621094 L 116.113281 147.292969 L 116.457031 147.628906 L 116.804688 147.964844 L 117.152344 148.304688 L 117.5 148.640625 L 117.84375 148.972656 L 118.191406 149.304688 L 118.539062 149.632812 L 118.882812 149.953125 L 119.230469 150.273438 L 119.578125 150.582031 L 119.925781 150.886719 L 120.269531 151.179688 L 120.617188 151.460938 L 120.964844 151.734375 L 121.3125 151.992188 L 121.65625 152.234375 L 122.003906 152.460938 L 122.351562 152.671875 L 122.699219 152.859375 L 123.042969 153.027344 L 123.390625 153.171875 L 123.738281 153.289062 L 124.085938 153.378906 L 124.429688 153.4375 L 124.777344 153.464844 L 125.125 153.460938 L 125.472656 153.417969 L 125.816406 153.335938 L 126.164062 153.210938 L 126.511719 153.039062 L 126.859375 152.824219 L 127.203125 152.558594 L 127.550781 152.242188 L 127.898438 151.867188 L 128.242188 151.4375 L 128.589844 150.945312 L 128.9375 150.386719 L 129.285156 149.765625 L 129.628906 149.074219 L 129.976562 148.3125 L 130.324219 147.476562 L 130.671875 146.5625 L 131.015625 145.570312 L 131.363281 144.496094 L 131.710938 143.339844 L 132.058594 142.097656 L 132.402344 140.765625 L 132.75 139.347656 L 133.097656 137.835938 L 133.445312 136.234375 L 133.789062 134.535156 L 134.136719 132.746094 L 134.484375 130.863281 L 134.832031 128.886719 L 135.175781 126.8125 L 135.523438 124.644531 L 135.871094 122.386719 L 136.21875 120.035156 L 136.5625 117.589844 L 136.910156 115.0625 L 137.257812 112.445312 L 137.601562 109.746094 L 137.949219 106.964844 L 138.296875 104.109375 L 138.644531 101.183594 L 138.988281 98.1875 L 139.335938 95.128906 L 139.683594 92.015625 L 140.03125 88.847656 L 140.375 85.632812 L 140.722656 82.382812 L 141.070312 79.101562 L 141.417969 75.792969 L 141.761719 72.46875 L 142.109375 69.136719 L 142.457031 65.800781 L 142.804688 62.476562 L 143.148438 59.167969 L 143.496094 55.886719 L 143.84375 52.640625 L 144.191406 49.441406 L 144.535156 46.292969 L 144.882812 43.210938 L 145.230469 40.199219 L 145.574219 37.273438 L 145.921875 34.441406 L 146.269531 31.707031 L 146.617188 29.085938 L 146.960938 26.585938 L 147.308594 24.210938 L 147.65625 21.976562 L 148.003906 19.882812 L 148.347656 17.945312 L 148.695312 16.167969 L 149.042969 14.558594 L 149.390625 13.121094 L 149.734375 11.863281 L 150.082031 10.789062 L 150.429688 9.90625 L 150.777344 9.214844 L 151.121094 8.722656 L 151.46875 8.425781 L 151.816406 8.332031 L 152.164062 8.441406 L 152.507812 8.757812 L 152.855469 9.273438 L 153.203125 9.996094 L 153.550781 10.917969 L 153.894531 12.039062 L 154.242188 13.359375 L 154.589844 14.871094 L 154.933594 16.574219 L 155.28125 18.460938 L 155.628906 20.527344 L 155.976562 22.765625 L 156.320312 25.175781 L 156.667969 27.746094 L 157.015625 30.46875 L 157.363281 33.335938 L 157.707031 36.339844 L 158.054688 39.476562 L 158.402344 42.730469 L 158.75 46.097656 L 159.09375 49.566406 L 159.441406 53.128906 L 159.789062 56.769531 L 160.136719 60.488281 L 160.480469 64.269531 L 160.828125 68.105469 L 161.175781 71.988281 L 161.523438 75.902344 L 161.867188 79.847656 L 162.214844 83.804688 L 162.910156 91.734375 L 163.253906 95.691406 L 163.601562 99.628906 L 163.949219 103.539062 L 164.292969 107.417969 L 164.640625 111.257812 L 164.988281 115.046875 L 165.335938 118.785156 L 165.679688 122.460938 L 166.027344 126.074219 L 166.375 129.617188 L 166.722656 133.082031 L 167.066406 136.472656 L 167.414062 139.777344 L 167.761719 142.992188 L 168.109375 146.121094 L 168.453125 149.160156 L 168.800781 152.101562 L 169.148438 154.945312 L 169.496094 157.695312 L 169.839844 160.34375 L 170.1875 162.894531 L 170.535156 165.347656 L 170.882812 167.699219 L 171.226562 169.949219 L 171.574219 172.105469 L 171.921875 174.160156 L 172.269531 176.121094 L 172.613281 177.984375 L 172.960938 179.753906 L 173.308594 181.433594 L 173.652344 183.023438 L 174 184.523438 L 174.347656 185.933594 L 174.695312 187.265625 L 175.039062 188.515625 L 175.386719 189.683594 L 175.734375 190.777344 L 176.082031 191.796875 L 176.425781 192.746094 L 176.773438 193.628906 L 177.121094 194.441406 L 177.46875 195.191406 L 177.8125 195.882812 L 178.160156 196.515625 L 178.507812 197.09375 L 178.855469 197.617188 L 179.199219 198.089844 L 179.546875 198.515625 L 179.894531 198.894531 L 180.242188 199.230469 L 180.585938 199.527344 L 180.933594 199.785156 L 181.28125 200.003906 L 181.628906 200.1875 L 181.972656 200.339844 L 182.320312 200.457031 L 182.667969 200.550781 L 183.011719 200.613281 L 183.359375 200.648438 L 183.707031 200.660156 L 184.054688 200.652344 L 184.398438 200.617188 L 184.746094 200.566406 L 185.09375 200.492188 L 185.441406 200.402344 L 185.785156 200.296875 L 186.132812 200.171875 L 186.480469 200.035156 L 186.828125 199.882812 L 187.171875 199.71875 L 187.519531 199.542969 L 187.867188 199.355469 L 188.214844 199.15625 L 188.558594 198.945312 L 188.90625 198.726562 L 189.253906 198.5 L 189.601562 198.265625 L 189.945312 198.023438 L 190.292969 197.769531 L 190.640625 197.511719 L 190.988281 197.25 L 191.332031 196.980469 L 191.679688 196.703125 L 192.027344 196.421875 L 192.371094 196.136719 L 192.71875 195.847656 L 193.066406 195.554688 L 193.414062 195.257812 L 193.757812 194.953125 L 194.105469 194.648438 L 194.800781 194.03125 L 195.144531 193.714844 L 195.839844 193.082031 L 196.1875 192.761719 L 196.53125 192.441406 L 197.574219 191.46875 L 197.917969 191.140625 L 198.265625 190.8125 L 198.613281 190.488281 L 198.960938 190.160156 L 199.304688 189.832031 L 200.347656 188.847656 L 200.691406 188.523438 L 201.039062 188.195312 L 201.386719 187.871094 L 201.730469 187.546875 L 202.773438 186.585938 L 203.117188 186.269531 L 204.160156 185.332031 L 204.503906 185.027344 L 204.851562 184.722656 L 205.546875 184.121094 L 205.890625 183.828125 L 206.238281 183.535156 L 206.933594 182.964844 L 207.277344 182.683594 L 207.972656 182.136719 L 208.320312 181.871094 L 208.664062 181.609375 L 209.011719 181.351562 L 209.707031 180.851562 L 210.050781 180.609375 L 210.398438 180.375 L 210.746094 180.144531 L 211.089844 179.917969 L 211.4375 179.699219 L 211.785156 179.484375 L 212.132812 179.277344 L 212.476562 179.078125 L 212.824219 178.882812 L 213.171875 178.695312 L 213.519531 178.511719 L 213.863281 178.339844 L 214.210938 178.171875 L 214.558594 178.007812 L 214.90625 177.855469 L 215.25 177.707031 L 215.597656 177.570312 L 215.945312 177.4375 L 216.292969 177.3125 L 216.636719 177.195312 L 216.984375 177.085938 L 217.332031 176.980469 L 217.679688 176.886719 L 218.023438 176.800781 L 218.371094 176.722656 L 218.71875 176.648438 L 219.066406 176.585938 L 219.410156 176.53125 L 219.757812 176.484375 L 220.105469 176.445312 L 220.449219 176.414062 L 220.796875 176.386719 L 221.144531 176.371094 L 221.492188 176.363281 L 221.835938 176.367188 L 222.183594 176.375 L 222.53125 176.390625 L 222.878906 176.414062 L 223.222656 176.445312 L 223.570312 176.484375 L 223.917969 176.535156 L 224.265625 176.589844 L 224.609375 176.652344 L 224.957031 176.722656 L 225.304688 176.804688 L 225.652344 176.890625 L 225.996094 176.984375 L 226.34375 177.085938 L 226.691406 177.191406 L 227.039062 177.308594 L 227.382812 177.429688 L 227.730469 177.5625 L 228.078125 177.699219 L 228.425781 177.839844 L 228.769531 177.992188 L 229.117188 178.148438 L 229.464844 178.3125 L 229.808594 178.480469 L 230.15625 178.65625 L 230.503906 178.835938 L 230.851562 179.023438 L 231.195312 179.214844 L 231.542969 179.414062 L 231.890625 179.617188 L 232.238281 179.828125 L 232.582031 180.039062 L 232.929688 180.257812 L 233.277344 180.480469 L 233.625 180.707031 L 233.96875 180.9375 L 234.316406 181.171875 L 234.664062 181.410156 L 235.011719 181.652344 L 235.355469 181.898438 L 235.703125 182.144531 L 236.050781 182.394531 L 236.398438 182.648438 L 236.742188 182.902344 L 237.4375 183.417969 L 237.78125 183.679688 L 238.824219 184.464844 L 239.167969 184.726562 L 240.210938 185.511719 L 240.554688 185.773438 L 241.25 186.289062 L 241.597656 186.542969 L 241.941406 186.796875 L 242.289062 187.046875 L 242.984375 187.539062 L 243.328125 187.777344 L 243.675781 188.015625 L 244.023438 188.246094 L 244.371094 188.472656 L 244.714844 188.695312 L 245.0625 188.914062 L 245.410156 189.125 L 245.757812 189.328125 L 246.101562 189.527344 L 246.449219 189.71875 L 246.796875 189.902344 L 247.140625 190.078125 L 247.488281 190.246094 L 247.835938 190.40625 L 248.183594 190.558594 L 248.527344 190.703125 L 248.875 190.832031 L 249.222656 190.957031 L 249.570312 191.070312 L 249.914062 191.171875 L 250.261719 191.261719 L 250.609375 191.339844 L 250.957031 191.410156 L 251.300781 191.464844 L 251.648438 191.507812 L 251.996094 191.539062 L 252.34375 191.558594 L 252.6875 191.5625 L 253.035156 191.550781 L 253.382812 191.527344 L 253.730469 191.488281 L 254.074219 191.433594 L 254.421875 191.367188 L 254.769531 191.28125 L 255.117188 191.183594 L 255.460938 191.066406 L 255.808594 190.9375 L 256.15625 190.789062 L 256.5 190.621094 L 256.847656 190.441406 L 257.195312 190.242188 L 257.542969 190.023438 L 257.886719 189.789062 L 258.234375 189.539062 L 258.582031 189.269531 L 258.929688 188.980469 L 259.273438 188.671875 L 259.621094 188.347656 L 259.96875 188.003906 L 260.316406 187.640625 L 260.660156 187.261719 L 261.007812 186.859375 L 261.355469 186.441406 L 261.703125 186.003906 L 262.046875 185.550781 L 262.394531 185.074219 L 262.742188 184.582031 L 263.089844 184.070312 L 263.433594 183.539062 L 263.78125 182.992188 L 264.128906 182.425781 L 264.476562 181.84375 L 264.820312 181.238281 L 265.167969 180.621094 L 265.515625 179.984375 L 265.859375 179.332031 L 266.207031 178.660156 L 266.554688 177.972656 L 266.902344 177.269531 L 267.246094 176.554688 L 267.59375 175.820312 L 267.941406 175.074219 L 268.289062 174.3125 L 268.632812 173.535156 L 268.980469 172.746094 L 269.328125 171.945312 L 269.675781 171.132812 L 270.019531 170.308594 L 270.367188 169.472656 L 270.714844 168.628906 L 271.0625 167.773438 L 271.40625 166.910156 L 271.753906 166.035156 L 272.101562 165.15625 L 272.449219 164.273438 L 272.792969 163.382812 L 273.488281 161.585938 L 273.835938 160.683594 L 274.179688 159.777344 L 274.527344 158.871094 L 274.875 157.960938 L 275.21875 157.054688 L 275.566406 156.148438 L 275.914062 155.246094 L 276.261719 154.347656 L 276.605469 153.449219 L 276.953125 152.558594 L 277.300781 151.671875 L 277.648438 150.796875 L 277.992188 149.925781 L 278.339844 149.066406 L 278.6875 148.214844 L 279.035156 147.375 L 279.378906 146.546875 L 279.726562 145.730469 L 280.074219 144.929688 L 280.421875 144.144531 L 280.765625 143.371094 L 281.113281 142.617188 L 281.460938 141.882812 L 281.808594 141.164062 L 282.152344 140.464844 L 282.5 139.789062 L 282.847656 139.132812 L 283.195312 138.496094 L 283.539062 137.882812 L 283.886719 137.296875 L 284.234375 136.734375 L 284.578125 136.195312 L 284.925781 135.679688 L 285.273438 135.195312 L 285.621094 134.734375 L 285.964844 134.304688 L 286.3125 133.902344 L 286.660156 133.527344 L 287.007812 133.183594 L 287.351562 132.871094 L 287.699219 132.585938 L 288.046875 132.332031 L 288.394531 132.113281 L 288.738281 131.921875 L 289.085938 131.765625 L 289.433594 131.636719 L 289.78125 131.546875 L 290.125 131.484375 L 290.472656 131.457031 L 290.820312 131.460938 L 291.167969 131.5 L 291.511719 131.570312 L 291.859375 131.671875 L 292.207031 131.808594 L 292.554688 131.976562 L 292.898438 132.179688 L 293.246094 132.414062 L 293.59375 132.679688 L 293.9375 132.976562 L 294.285156 133.304688 L 294.632812 133.667969 L 294.980469 134.058594 L 295.324219 134.480469 L 295.671875 134.933594 L 296.019531 135.414062 L 296.367188 135.925781 L 296.710938 136.460938 L 297.058594 137.03125 L 297.40625 137.621094 L 297.753906 138.242188 L 298.097656 138.890625 L 298.445312 139.5625 L 298.792969 140.257812 L 299.140625 140.976562 L 299.484375 141.71875 L 299.832031 142.484375 L 300.179688 143.269531 L 300.527344 144.074219 L 300.871094 144.902344 L 301.21875 145.746094 L 301.566406 146.609375 L 301.914062 147.488281 L 302.257812 148.382812 L 302.605469 149.292969 L 302.953125 150.21875 L 303.296875 151.160156 L 303.644531 152.109375 L 303.992188 153.074219 L 304.339844 154.046875 L 304.683594 155.027344 L 305.03125 156.019531 L 305.378906 157.019531 L 305.726562 158.027344 L 306.070312 159.039062 L 306.417969 160.054688 L 307.113281 162.101562 L 307.457031 163.132812 L 307.804688 164.160156 L 308.152344 165.191406 L 308.5 166.21875 L 308.84375 167.25 L 309.191406 168.277344 L 309.886719 170.324219 L 310.230469 171.34375 L 310.578125 172.355469 L 310.925781 173.363281 L 311.273438 174.367188 L 311.617188 175.359375 L 311.964844 176.347656 L 312.3125 177.328125 L 312.65625 178.300781 L 313.003906 179.265625 L 313.351562 180.21875 L 313.699219 181.160156 L 314.042969 182.09375 L 314.390625 183.015625 L 314.738281 183.925781 L 315.085938 184.824219 L 315.429688 185.710938 L 315.777344 186.582031 L 316.125 187.445312 L 316.472656 188.289062 L 316.816406 189.125 L 317.164062 189.945312 L 317.511719 190.75 L 317.859375 191.542969 L 318.203125 192.320312 L 318.550781 193.082031 L 318.898438 193.832031 L 319.246094 194.566406 L 319.589844 195.28125 L 319.9375 195.984375 L 320.285156 196.675781 L 320.628906 197.347656 L 320.976562 198.003906 L 321.324219 198.648438 L 321.671875 199.277344 L 322.015625 199.890625 L 322.363281 200.488281 L 322.710938 201.070312 L 323.058594 201.636719 L 323.402344 202.1875 L 323.75 202.726562 L 324.097656 203.25 L 324.445312 203.761719 L 324.789062 204.253906 L 325.136719 204.734375 L 325.484375 205.203125 L 325.832031 205.65625 L 326.175781 206.09375 L 326.523438 206.519531 L 326.871094 206.933594 L 327.21875 207.332031 L 327.5625 207.71875 L 327.910156 208.09375 L 328.257812 208.457031 L 328.605469 208.804688 L 328.949219 209.144531 L 329.296875 209.472656 L 329.644531 209.785156 L 329.988281 210.089844 L 330.335938 210.382812 L 330.683594 210.667969 L 331.03125 210.9375 L 331.375 211.199219 L 331.722656 211.453125 L 332.070312 211.695312 L 332.417969 211.929688 L 332.761719 212.152344 L 333.109375 212.371094 L 333.457031 212.578125 L 333.804688 212.773438 L 334.148438 212.964844 L 334.496094 213.148438 L 334.84375 213.324219 L 335.191406 213.492188 L 335.535156 213.652344 L 335.882812 213.804688 L 336.230469 213.953125 L 336.578125 214.09375 L 336.921875 214.226562 L 337.269531 214.355469 L 337.617188 214.476562 L 337.964844 214.59375 L 338.308594 214.707031 L 338.65625 214.8125 L 339.003906 214.914062 L 339.347656 215.011719 L 339.695312 215.105469 L 340.042969 215.191406 L 340.390625 215.273438 L 340.734375 215.355469 L 341.082031 215.429688 L 341.777344 215.570312 L 342.121094 215.632812 L 342.46875 215.695312 L 342.816406 215.753906 L 343.164062 215.808594 L 343.507812 215.859375 L 343.855469 215.910156 L 344.203125 215.957031 L 344.550781 216 L 344.894531 216.042969 L 345.589844 216.121094 L 345.9375 216.15625 L 346.28125 216.1875 L 346.976562 216.25 L 347.324219 216.277344 L 347.667969 216.304688 L 348.363281 216.351562 L 348.707031 216.375 L 349.75 216.433594 L 350.09375 216.449219 L 350.441406 216.46875 L 350.789062 216.480469 L 351.136719 216.496094 L 351.480469 216.507812 L 351.828125 216.523438 L 352.523438 216.546875 L 352.867188 216.554688 L 353.214844 216.566406 L 353.910156 216.582031 L 354.253906 216.589844 L 355.296875 216.613281 L 355.640625 216.617188 L 355.988281 216.621094 L 356.335938 216.628906 L 356.683594 216.632812 L 357.027344 216.636719 L 357.722656 216.644531 L 358.066406 216.648438 L 359.109375 216.660156 L 359.453125 216.660156 L 360.148438 216.667969 "/>
</svg>
