<?xml version="1.0" encoding="UTF-8"?>
<svg xmlns="http://www.w3.org/2000/svg" xmlns:xlink="http://www.w3.org/1999/xlink" width="374" height="225" viewBox="0 0 374 225">
<rect x="-37.4" y="-22.5" width="448.8" height="270" fill="rgb(100%, 100%, 100%)" fill-opacity="1"/>
<path fill="none" stroke-width="7.5" stroke-linecap="round" stroke-linejoin="round" stroke="rgb(0%, 0%, 0%)" stroke-opacity="1" stroke-miterlimit="10" d="M 13.851562 215.761719 L 14.546875 215.707031 L 14.890625 215.675781 L 15.238281 215.648438 L 15.933594 215.585938 L 16.277344 215.554688 L 16.972656 215.492188 L 17.316406 215.457031 L 17.664062 215.425781 L 18.011719 215.390625 L 18.359375 215.351562 L 18.703125 215.316406 L 19.050781 215.277344 L 19.398438 215.242188 L 19.746094 215.203125 L 20.089844 215.160156 L 20.4375 215.121094 L 21.132812 215.035156 L 21.476562 214.992188 L 21.824219 214.949219 L 22.519531 214.855469 L 22.863281 214.808594 L 23.210938 214.761719 L 23.90625 214.660156 L 24.25 214.609375 L 24.597656 214.558594 L 25.292969 214.449219 L 25.636719 214.394531 L 26.332031 214.277344 L 26.675781 214.21875 L 27.023438 214.15625 L 27.371094 214.097656 L 27.71875 214.03125 L 28.0625 213.96875 L 29.105469 213.769531 L 29.449219 213.699219 L 29.796875 213.628906 L 30.144531 213.554688 L 30.492188 213.484375 L 30.835938 213.40625 L 31.183594 213.332031 L 31.878906 213.175781 L 32.222656 213.09375 L 32.917969 212.929688 L 33.265625 212.84375 L 33.609375 212.757812 L 34.652344 212.488281 L 34.996094 212.394531 L 35.34375 212.300781 L 35.691406 212.203125 L 36.035156 212.105469 L 37.078125 211.800781 L 37.421875 211.695312 L 37.769531 211.589844 L 38.117188 211.480469 L 38.464844 211.367188 L 38.808594 211.257812 L 39.15625 211.140625 L 39.503906 211.027344 L 39.851562 210.90625 L 40.195312 210.789062 L 40.542969 210.667969 L 41.238281 210.417969 L 41.582031 210.289062 L 41.929688 210.160156 L 42.625 209.894531 L 42.96875 209.757812 L 43.316406 209.621094 L 43.664062 209.480469 L 44.011719 209.335938 L 44.355469 209.191406 L 44.703125 209.046875 L 45.050781 208.898438 L 45.394531 208.746094 L 45.742188 208.59375 L 46.4375 208.28125 L 46.78125 208.121094 L 47.476562 207.792969 L 47.824219 207.625 L 48.167969 207.457031 L 48.515625 207.285156 L 49.210938 206.933594 L 49.554688 206.757812 L 50.597656 206.207031 L 50.941406 206.015625 L 51.289062 205.828125 L 51.984375 205.4375 L 52.328125 205.238281 L 52.675781 205.039062 L 53.023438 204.835938 L 53.371094 204.628906 L 53.714844 204.421875 L 54.410156 204 L 54.753906 203.78125 L 55.449219 203.34375 L 55.796875 203.121094 L 56.140625 202.894531 L 56.835938 202.433594 L 57.183594 202.199219 L 57.527344 201.964844 L 57.875 201.726562 L 58.222656 201.484375 L 58.570312 201.238281 L 58.914062 200.992188 L 59.609375 200.492188 L 59.957031 200.238281 L 60.300781 199.980469 L 61.34375 199.195312 L 61.6875 198.925781 L 62.035156 198.65625 L 62.382812 198.382812 L 62.726562 198.109375 L 63.074219 197.832031 L 63.769531 197.269531 L 64.113281 196.984375 L 64.808594 196.40625 L 65.15625 196.113281 L 65.5 195.820312 L 65.847656 195.519531 L 66.195312 195.222656 L 66.542969 194.917969 L 66.886719 194.613281 L 67.234375 194.308594 L 67.582031 193.996094 L 67.929688 193.6875 L 68.273438 193.371094 L 68.621094 193.054688 L 69.316406 192.414062 L 69.660156 192.09375 L 70.703125 191.109375 L 71.046875 190.777344 L 71.742188 190.105469 L 72.085938 189.769531 L 72.433594 189.429688 L 73.128906 188.742188 L 73.472656 188.394531 L 74.167969 187.699219 L 74.515625 187.34375 L 74.859375 186.992188 L 75.554688 186.28125 L 75.902344 185.921875 L 76.246094 185.5625 L 76.941406 184.835938 L 77.289062 184.46875 L 77.632812 184.105469 L 77.980469 183.734375 L 78.328125 183.367188 L 78.675781 182.996094 L 79.019531 182.625 L 79.367188 182.25 L 79.714844 181.878906 L 80.0625 181.503906 L 80.40625 181.125 L 80.753906 180.746094 L 81.101562 180.371094 L 81.445312 179.988281 L 82.140625 179.230469 L 82.488281 178.847656 L 82.832031 178.464844 L 83.179688 178.082031 L 83.527344 177.695312 L 83.875 177.3125 L 84.21875 176.925781 L 84.566406 176.542969 L 85.261719 175.769531 L 85.605469 175.382812 L 86.648438 174.222656 L 86.992188 173.835938 L 87.6875 173.0625 L 88.035156 172.679688 L 88.378906 172.292969 L 89.074219 171.519531 L 89.421875 171.136719 L 89.765625 170.75 L 90.460938 169.984375 L 90.804688 169.601562 L 91.5 168.835938 L 91.847656 168.457031 L 92.191406 168.078125 L 92.886719 167.320312 L 93.234375 166.945312 L 93.578125 166.570312 L 93.925781 166.195312 L 94.273438 165.824219 L 94.621094 165.449219 L 94.964844 165.082031 L 95.3125 164.710938 L 96.007812 163.976562 L 96.351562 163.613281 L 96.699219 163.25 L 97.394531 162.53125 L 97.738281 162.171875 L 98.433594 161.460938 L 98.78125 161.109375 L 99.125 160.757812 L 99.472656 160.40625 L 99.820312 160.058594 L 100.164062 159.710938 L 100.511719 159.367188 L 100.859375 159.027344 L 101.207031 158.683594 L 101.550781 158.34375 L 102.59375 157.335938 L 102.9375 157.003906 L 103.632812 156.339844 L 103.980469 156.011719 L 104.324219 155.683594 L 104.671875 155.355469 L 105.019531 155.03125 L 105.367188 154.703125 L 105.710938 154.378906 L 106.753906 153.40625 L 107.097656 153.082031 L 107.445312 152.757812 L 107.792969 152.429688 L 108.140625 152.105469 L 108.484375 151.777344 L 108.832031 151.449219 L 109.179688 151.117188 L 109.523438 150.785156 L 110.21875 150.113281 L 110.566406 149.773438 L 110.910156 149.425781 L 111.257812 149.078125 L 111.605469 148.726562 L 111.953125 148.367188 L 112.296875 148.003906 L 112.644531 147.636719 L 113.339844 146.878906 L 113.683594 146.488281 L 114.03125 146.089844 L 114.378906 145.679688 L 114.726562 145.265625 L 115.070312 144.835938 L 115.417969 144.398438 L 115.765625 143.953125 L 116.113281 143.488281 L 116.457031 143.015625 L 116.804688 142.527344 L 117.152344 142.023438 L 117.5 141.507812 L 117.84375 140.972656 L 118.191406 140.421875 L 118.539062 139.851562 L 118.882812 139.265625 L 119.230469 138.65625 L 119.578125 138.03125 L 119.925781 137.382812 L 120.269531 136.710938 L 120.617188 136.015625 L 120.964844 135.296875 L 121.3125 134.554688 L 121.65625 133.785156 L 122.003906 132.992188 L 122.351562 132.167969 L 122.699219 131.316406 L 123.042969 130.4375 L 123.390625 129.527344 L 123.738281 128.585938 L 124.085938 127.613281 L 124.429688 126.609375 L 124.777344 125.570312 L 125.125 124.5 L 125.472656 123.394531 L 125.816406 122.253906 L 126.164062 121.078125 L 126.511719 119.867188 L 126.859375 118.621094 L 127.203125 117.335938 L 127.550781 116.015625 L 127.898438 114.660156 L 128.242188 113.265625 L 128.589844 111.832031 L 128.9375 110.363281 L 129.285156 108.855469 L 129.628906 107.3125 L 129.976562 105.730469 L 130.324219 104.113281 L 130.671875 102.460938 L 131.015625 100.769531 L 131.363281 99.046875 L 131.710938 97.289062 L 132.058594 95.496094 L 132.402344 93.671875 L 132.75 91.820312 L 133.097656 89.933594 L 133.445312 88.019531 L 133.789062 86.078125 L 134.136719 84.109375 L 134.484375 82.117188 L 134.832031 80.101562 L 135.175781 78.066406 L 135.523438 76.011719 L 135.871094 73.941406 L 136.21875 71.855469 L 136.5625 69.753906 L 136.910156 67.644531 L 137.257812 65.527344 L 137.601562 63.40625 L 138.296875 59.15625 L 138.644531 57.035156 L 138.988281 54.917969 L 139.335938 52.8125 L 139.683594 50.714844 L 140.03125 48.632812 L 140.375 46.570312 L 140.722656 44.53125 L 141.070312 42.511719 L 141.417969 40.519531 L 141.761719 38.5625 L 142.109375 36.636719 L 142.457031 34.746094 L 142.804688 32.898438 L 143.148438 31.09375 L 143.496094 29.335938 L 143.84375 27.628906 L 144.191406 25.976562 L 144.535156 24.378906 L 144.882812 22.839844 L 145.230469 21.367188 L 145.574219 19.957031 L 145.921875 18.617188 L 146.269531 17.347656 L 146.617188 16.148438 L 146.960938 15.03125 L 147.308594 13.988281 L 147.65625 13.03125 L 148.003906 12.15625 L 148.347656 11.367188 L 148.695312 10.664062 L 149.042969 10.050781 L 149.390625 9.527344 L 149.734375 9.097656 L 150.082031 8.765625 L 150.429688 8.523438 L 150.777344 8.378906 L 151.121094 8.332031 L 151.46875 8.382812 L 151.816406 8.53125 L 152.164062 8.78125 L 152.507812 9.125 L 152.855469 9.570312 L 153.203125 10.113281 L 153.550781 10.753906 L 153.894531 11.492188 L 154.242188 12.324219 L 154.589844 13.253906 L 154.933594 14.28125 L 155.28125 15.398438 L 155.628906 16.605469 L 155.976562 17.90625 L 156.320312 19.292969 L 156.667969 20.765625 L 157.015625 22.324219 L 157.363281 23.964844 L 157.707031 25.683594 L 158.054688 27.480469 L 158.402344 29.351562 L 158.75 31.296875 L 159.09375 33.308594 L 159.441406 35.386719 L 159.789062 37.53125 L 160.136719 39.730469 L 160.480469 41.992188 L 160.828125 44.304688 L 161.175781 46.667969 L 161.523438 49.078125 L 161.867188 51.535156 L 162.214844 54.03125 L 162.5625 56.5625 L 162.910156 59.128906 L 163.253906 61.726562 L 163.601562 64.351562 L 163.949219 66.996094 L 164.292969 69.664062 L 164.640625 72.351562 L 164.988281 75.046875 L 165.335938 77.757812 L 165.679688 80.472656 L 166.027344 83.195312 L 166.722656 88.632812 L 167.066406 91.347656 L 167.414062 94.054688 L 167.761719 96.753906 L 168.109375 99.4375 L 168.453125 102.101562 L 168.800781 104.753906 L 169.148438 107.382812 L 169.496094 109.988281 L 169.839844 112.570312 L 170.1875 115.125 L 170.535156 117.652344 L 170.882812 120.144531 L 171.226562 122.609375 L 171.574219 125.039062 L 171.921875 127.429688 L 172.269531 129.789062 L 172.613281 132.105469 L 172.960938 134.386719 L 173.308594 136.625 L 173.652344 138.824219 L 174 140.980469 L 174.347656 143.09375 L 174.695312 145.160156 L 175.039062 147.1875 L 175.386719 149.167969 L 175.734375 151.105469 L 176.082031 153 L 176.425781 154.84375 L 176.773438 156.648438 L 177.121094 158.402344 L 177.46875 160.117188 L 177.8125 161.785156 L 178.160156 163.40625 L 178.507812 164.984375 L 178.855469 166.519531 L 179.199219 168.011719 L 179.546875 169.457031 L 179.894531 170.863281 L 180.242188 172.230469 L 180.585938 173.550781 L 180.933594 174.832031 L 181.28125 176.074219 L 181.628906 177.28125 L 181.972656 178.445312 L 182.320312 179.570312 L 182.667969 180.660156 L 183.011719 181.714844 L 183.359375 182.734375 L 183.707031 183.722656 L 184.054688 184.671875 L 184.398438 185.59375 L 184.746094 186.480469 L 185.09375 187.335938 L 185.441406 188.164062 L 185.785156 188.964844 L 186.132812 189.734375 L 186.480469 190.476562 L 186.828125 191.191406 L 187.171875 191.882812 L 187.519531 192.550781 L 187.867188 193.191406 L 188.214844 193.8125 L 188.558594 194.410156 L 188.90625 194.984375 L 189.253906 195.542969 L 189.601562 196.078125 L 189.945312 196.59375 L 190.292969 197.089844 L 190.640625 197.570312 L 190.988281 198.035156 L 191.332031 198.480469 L 191.679688 198.910156 L 192.027344 199.328125 L 192.371094 199.726562 L 192.71875 200.113281 L 193.066406 200.488281 L 193.414062 200.847656 L 193.757812 201.195312 L 194.105469 201.53125 L 194.453125 201.859375 L 194.800781 202.171875 L 195.144531 202.472656 L 195.492188 202.765625 L 195.839844 203.050781 L 196.1875 203.324219 L 196.53125 203.585938 L 196.878906 203.84375 L 197.226562 204.089844 L 197.574219 204.328125 L 197.917969 204.558594 L 198.265625 204.78125 L 198.613281 205 L 198.960938 205.207031 L 199.304688 205.410156 L 199.652344 205.605469 L 200 205.792969 L 200.347656 205.976562 L 200.691406 206.152344 L 201.039062 206.324219 L 201.386719 206.488281 L 201.730469 206.644531 L 202.078125 206.800781 L 202.773438 207.089844 L 203.117188 207.226562 L 203.464844 207.359375 L 203.8125 207.484375 L 204.160156 207.605469 L 204.503906 207.722656 L 204.851562 207.835938 L 205.199219 207.941406 L 205.546875 208.042969 L 205.890625 208.140625 L 206.238281 208.234375 L 206.933594 208.40625 L 207.277344 208.484375 L 207.625 208.558594 L 208.320312 208.691406 L 208.664062 208.75 L 209.011719 208.804688 L 209.359375 208.855469 L 209.707031 208.902344 L 210.050781 208.941406 L 210.398438 208.980469 L 210.746094 209.011719 L 211.089844 209.039062 L 211.785156 209.078125 L 212.132812 209.089844 L 212.476562 209.097656 L 212.824219 209.101562 L 213.171875 209.097656 L 213.519531 209.089844 L 213.863281 209.078125 L 214.210938 209.0625 L 214.558594 209.039062 L 214.90625 209.011719 L 215.25 208.976562 L 215.597656 208.941406 L 216.292969 208.847656 L 216.636719 208.792969 L 216.984375 208.734375 L 217.332031 208.667969 L 217.679688 208.597656 L 218.023438 208.523438 L 218.371094 208.441406 L 219.066406 208.261719 L 219.410156 208.160156 L 219.757812 208.058594 L 220.105469 207.945312 L 220.449219 207.828125 L 220.796875 207.707031 L 221.144531 207.578125 L 221.492188 207.445312 L 221.835938 207.304688 L 222.183594 207.15625 L 222.53125 207.003906 L 222.878906 206.84375 L 223.222656 206.679688 L 223.570312 206.507812 L 223.917969 206.328125 L 224.265625 206.144531 L 224.609375 205.953125 L 224.957031 205.753906 L 225.304688 205.550781 L 225.652344 205.339844 L 225.996094 205.121094 L 226.34375 204.898438 L 226.691406 204.667969 L 227.039062 204.429688 L 227.382812 204.1875 L 227.730469 203.933594 L 228.078125 203.675781 L 228.425781 203.414062 L 228.769531 203.140625 L 229.117188 202.863281 L 229.464844 202.578125 L 229.808594 202.289062 L 230.15625 201.988281 L 230.503906 201.683594 L 230.851562 201.371094 L 231.195312 201.050781 L 231.542969 200.726562 L 231.890625 200.394531 L 232.238281 200.054688 L 232.582031 199.707031 L 232.929688 199.355469 L 233.277344 198.996094 L 233.625 198.628906 L 233.96875 198.257812 L 234.316406 197.878906 L 234.664062 197.492188 L 235.011719 197.097656 L 235.355469 196.699219 L 235.703125 196.292969 L 236.050781 195.882812 L 236.398438 195.464844 L 236.742188 195.039062 L 237.089844 194.609375 L 237.4375 194.171875 L 237.78125 193.730469 L 238.128906 193.28125 L 238.824219 192.367188 L 239.167969 191.898438 L 239.515625 191.429688 L 239.863281 190.953125 L 240.210938 190.46875 L 240.554688 189.984375 L 240.902344 189.492188 L 241.597656 188.492188 L 241.941406 187.984375 L 242.289062 187.476562 L 242.636719 186.960938 L 242.984375 186.441406 L 243.328125 185.917969 L 243.675781 185.390625 L 244.023438 184.859375 L 244.371094 184.324219 L 244.714844 183.785156 L 245.0625 183.246094 L 245.410156 182.703125 L 245.757812 182.15625 L 246.101562 181.605469 L 246.449219 181.054688 L 246.796875 180.5 L 247.140625 179.945312 L 248.183594 178.269531 L 248.527344 177.707031 L 249.570312 176.019531 L 249.914062 175.457031 L 250.957031 173.769531 L 251.300781 173.210938 L 252.34375 171.535156 L 252.6875 170.980469 L 253.382812 169.878906 L 253.730469 169.332031 L 254.074219 168.785156 L 254.769531 167.707031 L 255.117188 167.175781 L 255.460938 166.644531 L 255.808594 166.117188 L 256.15625 165.597656 L 256.5 165.082031 L 256.847656 164.570312 L 257.195312 164.066406 L 257.542969 163.566406 L 257.886719 163.074219 L 258.234375 162.585938 L 258.582031 162.105469 L 258.929688 161.628906 L 259.273438 161.164062 L 259.621094 160.703125 L 259.96875 160.25 L 260.316406 159.804688 L 260.660156 159.371094 L 261.007812 158.941406 L 261.355469 158.523438 L 261.703125 158.109375 L 262.046875 157.707031 L 262.394531 157.316406 L 262.742188 156.933594 L 263.089844 156.558594 L 263.433594 156.195312 L 263.78125 155.839844 L 264.128906 155.496094 L 264.476562 155.164062 L 264.820312 154.84375 L 265.167969 154.53125 L 265.515625 154.230469 L 265.859375 153.941406 L 266.207031 153.664062 L 266.554688 153.398438 L 266.902344 153.144531 L 267.246094 152.902344 L 267.59375 152.671875 L 267.941406 152.457031 L 268.289062 152.25 L 268.632812 152.058594 L 268.980469 151.878906 L 269.328125 151.710938 L 269.675781 151.554688 L 270.019531 151.414062 L 270.367188 151.285156 L 270.714844 151.167969 L 271.0625 151.066406 L 271.40625 150.976562 L 271.753906 150.902344 L 272.101562 150.839844 L 272.449219 150.789062 L 272.792969 150.753906 L 273.140625 150.730469 L 273.488281 150.722656 L 273.835938 150.726562 L 274.179688 150.746094 L 274.527344 150.777344 L 274.875 150.820312 L 275.21875 150.878906 L 275.566406 150.953125 L 275.914062 151.039062 L 276.261719 151.136719 L 276.605469 151.246094 L 276.953125 151.371094 L 277.300781 151.507812 L 277.648438 151.660156 L 277.992188 151.824219 L 278.339844 152 L 278.6875 152.191406 L 279.035156 152.390625 L 279.378906 152.605469 L 279.726562 152.832031 L 280.074219 153.070312 L 280.421875 153.320312 L 280.765625 153.585938 L 281.113281 153.859375 L 281.460938 154.144531 L 281.808594 154.441406 L 282.152344 154.75 L 282.5 155.070312 L 282.847656 155.402344 L 283.195312 155.742188 L 283.539062 156.09375 L 283.886719 156.457031 L 284.234375 156.828125 L 284.578125 157.210938 L 284.925781 157.605469 L 285.273438 158.003906 L 285.621094 158.414062 L 285.964844 158.835938 L 286.3125 159.261719 L 286.660156 159.699219 L 287.007812 160.144531 L 287.351562 160.597656 L 287.699219 161.058594 L 288.046875 161.527344 L 288.394531 162.003906 L 288.738281 162.484375 L 289.085938 162.972656 L 289.433594 163.46875 L 289.78125 163.972656 L 290.125 164.480469 L 290.472656 164.992188 L 290.820312 165.511719 L 291.167969 166.039062 L 291.511719 166.566406 L 292.207031 167.636719 L 292.554688 168.179688 L 292.898438 168.726562 L 293.59375 169.828125 L 293.9375 170.386719 L 294.632812 171.503906 L 294.980469 172.070312 L 295.324219 172.632812 L 295.671875 173.203125 L 296.019531 173.769531 L 296.367188 174.339844 L 296.710938 174.914062 L 297.40625 176.054688 L 297.753906 176.628906 L 298.097656 177.203125 L 298.445312 177.773438 L 298.792969 178.347656 L 299.140625 178.917969 L 299.484375 179.488281 L 299.832031 180.058594 L 300.527344 181.191406 L 300.871094 181.757812 L 301.566406 182.882812 L 301.914062 183.441406 L 302.257812 183.996094 L 302.605469 184.550781 L 302.953125 185.101562 L 303.296875 185.648438 L 303.992188 186.734375 L 304.339844 187.269531 L 304.683594 187.804688 L 305.378906 188.859375 L 305.726562 189.382812 L 306.070312 189.898438 L 306.765625 190.921875 L 307.113281 191.425781 L 307.457031 191.925781 L 307.804688 192.417969 L 308.152344 192.90625 L 308.5 193.390625 L 308.84375 193.871094 L 309.191406 194.34375 L 309.539062 194.8125 L 309.886719 195.277344 L 310.230469 195.734375 L 310.578125 196.1875 L 310.925781 196.632812 L 311.273438 197.074219 L 311.617188 197.511719 L 311.964844 197.941406 L 312.3125 198.363281 L 312.65625 198.78125 L 313.003906 199.195312 L 313.351562 199.601562 L 313.699219 200 L 314.042969 200.394531 L 314.390625 200.78125 L 314.738281 201.164062 L 315.085938 201.539062 L 315.429688 201.910156 L 315.777344 202.273438 L 316.125 202.632812 L 316.472656 202.984375 L 316.816406 203.332031 L 317.164062 203.671875 L 317.511719 204.003906 L 317.859375 204.332031 L 318.203125 204.65625 L 318.550781 204.972656 L 318.898438 205.28125 L 319.246094 205.585938 L 319.589844 205.886719 L 319.9375 206.179688 L 320.285156 206.464844 L 320.628906 206.746094 L 320.976562 207.023438 L 321.324219 207.292969 L 321.671875 207.554688 L 322.015625 207.816406 L 322.363281 208.070312 L 322.710938 208.316406 L 323.058594 208.558594 L 323.402344 208.796875 L 323.75 209.027344 L 324.097656 209.253906 L 324.445312 209.476562 L 324.789062 209.695312 L 325.136719 209.90625 L 325.484375 210.113281 L 325.832031 210.3125 L 326.175781 210.511719 L 326.523438 210.703125 L 326.871094 210.890625 L 327.21875 211.074219 L 327.5625 211.25 L 327.910156 211.425781 L 328.257812 211.59375 L 328.605469 211.757812 L 328.949219 211.921875 L 329.296875 212.078125 L 329.644531 212.230469 L 329.988281 212.378906 L 330.335938 212.523438 L 330.683594 212.664062 L 331.03125 212.800781 L 331.375 212.933594 L 331.722656 213.0625 L 332.070312 213.1875 L 332.417969 213.308594 L 332.761719 213.429688 L 333.457031 213.65625 L 333.804688 213.765625 L 334.148438 213.871094 L 334.496094 213.972656 L 335.191406 214.167969 L 335.535156 214.261719 L 336.230469 214.441406 L 336.578125 214.523438 L 336.921875 214.609375 L 337.617188 214.765625 L 337.964844 214.839844 L 338.308594 214.914062 L 338.65625 214.980469 L 339.003906 215.050781 L 339.347656 215.117188 L 340.042969 215.242188 L 340.390625 215.300781 L 340.734375 215.355469 L 341.082031 215.414062 L 341.429688 215.464844 L 341.777344 215.519531 L 342.121094 215.566406 L 342.46875 215.617188 L 342.816406 215.664062 L 343.164062 215.707031 L 343.507812 215.75 L 343.855469 215.792969 L 344.550781 215.871094 L 344.894531 215.90625 L 345.242188 215.945312 L 345.589844 215.980469 L 345.9375 216.011719 L 346.28125 216.042969 L 346.976562 216.105469 L 347.324219 216.132812 L 347.667969 216.160156 L 348.363281 216.214844 L 348.707031 216.238281 L 349.402344 216.285156 L 349.75 216.304688 L 350.09375 216.324219 L 350.441406 216.347656 L 350.789062 216.367188 L 351.136719 216.382812 L 351.480469 216.402344 L 352.523438 216.449219 L 352.867188 216.464844 L 353.214844 216.480469 L 353.5625 216.492188 L 353.910156 216.507812 L 354.253906 216.519531 L 355.296875 216.554688 L 355.640625 216.566406 L 355.988281 216.574219 L 356.335938 216.585938 L 356.683594 216.59375 L 357.027344 216.601562 L 357.375 216.609375 L 357.722656 216.621094 L 358.066406 216.628906 L 358.414062 216.632812 L 359.109375 216.648438 L 359.453125 216.65625 L 359.800781 216.660156 L 360.148438 216.667969 "/>
</svg>
