<?xml version="1.0" encoding="UTF-8"?>
<svg xmlns="http://www.w3.org/2000/svg" xmlns:xlink="http://www.w3.org/1999/xlink" width="374" height="225" viewBox="0 0 374 225">
<rect x="-37.4" y="-22.5" width="448.8" height="270" fill="rgb(100%, 100%, 100%)" fill-opacity="1"/>
<path fill="none" stroke-width="7.5" stroke-linecap="round" stroke-linejoin="round" stroke="rgb(0%, 0%, 0%)" stroke-opacity="1" stroke-miterlimit="10" d="M 13.851562 216.667969 L 14.199219 216.558594 L 14.546875 216.445312 L 14.890625 216.332031 L 15.238281 216.21875 L 15.585938 216.101562 L 15.933594 215.980469 L 16.277344 215.863281 L 16.625 215.738281 L 16.972656 215.617188 L 17.316406 215.488281 L 17.664062 215.363281 L 18.011719 215.234375 L 18.359375 215.101562 L 18.703125 214.96875 L 19.398438 214.695312 L 19.746094 214.554688 L 20.089844 214.414062 L 20.4375 214.273438 L 20.785156 214.125 L 21.132812 213.980469 L 21.476562 213.828125 L 22.171875 213.523438 L 22.519531 213.367188 L 22.863281 213.207031 L 23.558594 212.886719 L 23.90625 212.71875 L 24.25 212.554688 L 24.945312 212.210938 L 25.292969 212.035156 L 25.636719 211.859375 L 26.332031 211.5 L 26.675781 211.316406 L 27.371094 210.941406 L 27.71875 210.75 L 28.0625 210.554688 L 28.410156 210.359375 L 28.757812 210.15625 L 29.105469 209.957031 L 29.449219 209.75 L 30.144531 209.335938 L 30.492188 209.121094 L 30.835938 208.90625 L 31.53125 208.46875 L 31.878906 208.242188 L 32.222656 208.015625 L 32.570312 207.789062 L 33.265625 207.320312 L 33.609375 207.082031 L 34.304688 206.597656 L 34.652344 206.347656 L 34.996094 206.097656 L 35.691406 205.589844 L 36.035156 205.328125 L 36.382812 205.066406 L 36.730469 204.800781 L 37.078125 204.53125 L 37.421875 204.261719 L 38.117188 203.707031 L 38.464844 203.425781 L 38.808594 203.140625 L 39.15625 202.851562 L 39.851562 202.265625 L 40.195312 201.96875 L 40.890625 201.359375 L 41.238281 201.050781 L 41.582031 200.738281 L 42.277344 200.105469 L 42.625 199.78125 L 42.96875 199.457031 L 43.664062 198.792969 L 44.011719 198.457031 L 44.355469 198.113281 L 44.703125 197.769531 L 45.050781 197.421875 L 45.394531 197.070312 L 45.742188 196.714844 L 46.089844 196.355469 L 46.4375 195.992188 L 46.78125 195.628906 L 47.128906 195.257812 L 47.476562 194.882812 L 47.824219 194.503906 L 48.167969 194.121094 L 48.515625 193.738281 L 48.863281 193.347656 L 49.210938 192.953125 L 49.554688 192.558594 L 49.902344 192.15625 L 50.25 191.75 L 50.597656 191.339844 L 50.941406 190.929688 L 51.289062 190.511719 L 51.636719 190.089844 L 51.984375 189.664062 L 52.328125 189.234375 L 52.675781 188.800781 L 53.023438 188.363281 L 53.371094 187.921875 L 53.714844 187.476562 L 54.0625 187.027344 L 54.410156 186.574219 L 54.753906 186.117188 L 55.449219 185.1875 L 55.796875 184.71875 L 56.140625 184.242188 L 56.488281 183.765625 L 56.835938 183.28125 L 57.183594 182.792969 L 57.527344 182.304688 L 57.875 181.808594 L 58.222656 181.308594 L 58.570312 180.804688 L 58.914062 180.296875 L 59.261719 179.785156 L 59.609375 179.269531 L 59.957031 178.746094 L 60.300781 178.222656 L 60.996094 177.160156 L 61.34375 176.621094 L 61.6875 176.078125 L 62.035156 175.53125 L 62.382812 174.980469 L 62.726562 174.425781 L 63.074219 173.867188 L 63.421875 173.304688 L 63.769531 172.738281 L 64.113281 172.164062 L 64.460938 171.589844 L 65.15625 170.425781 L 65.5 169.835938 L 65.847656 169.242188 L 66.195312 168.644531 L 66.542969 168.042969 L 66.886719 167.4375 L 67.234375 166.828125 L 67.582031 166.214844 L 67.929688 165.59375 L 68.273438 164.972656 L 68.621094 164.347656 L 68.96875 163.714844 L 69.316406 163.078125 L 69.660156 162.441406 L 70.007812 161.796875 L 70.703125 160.5 L 71.046875 159.84375 L 71.394531 159.183594 L 71.742188 158.519531 L 72.085938 157.851562 L 72.433594 157.179688 L 72.78125 156.503906 L 73.128906 155.824219 L 73.472656 155.140625 L 73.820312 154.453125 L 74.167969 153.761719 L 74.515625 153.066406 L 74.859375 152.367188 L 75.207031 151.664062 L 75.554688 150.957031 L 75.902344 150.246094 L 76.246094 149.53125 L 76.59375 148.8125 L 76.941406 148.089844 L 77.289062 147.363281 L 77.632812 146.636719 L 77.980469 145.902344 L 78.675781 144.425781 L 79.019531 143.683594 L 79.714844 142.183594 L 80.0625 141.429688 L 80.40625 140.671875 L 81.101562 139.148438 L 81.445312 138.378906 L 81.792969 137.609375 L 82.140625 136.835938 L 82.488281 136.058594 L 82.832031 135.277344 L 83.179688 134.496094 L 83.875 132.917969 L 84.21875 132.125 L 84.566406 131.332031 L 85.261719 129.730469 L 85.605469 128.929688 L 86.300781 127.3125 L 86.648438 126.5 L 86.992188 125.6875 L 87.339844 124.871094 L 88.035156 123.230469 L 88.378906 122.40625 L 89.074219 120.75 L 89.421875 119.917969 L 89.765625 119.085938 L 90.460938 117.414062 L 90.804688 116.574219 L 91.152344 115.734375 L 91.847656 114.046875 L 92.191406 113.199219 L 92.539062 112.351562 L 92.886719 111.5 L 93.234375 110.652344 L 93.578125 109.796875 L 93.925781 108.945312 L 94.273438 108.089844 L 94.621094 107.230469 L 94.964844 106.375 L 95.660156 104.65625 L 96.007812 103.792969 L 96.351562 102.929688 L 97.394531 100.339844 L 97.738281 99.472656 L 98.085938 98.609375 L 98.78125 96.875 L 99.125 96.007812 L 99.820312 94.273438 L 100.164062 93.40625 L 101.207031 90.804688 L 101.550781 89.933594 L 101.898438 89.066406 L 102.246094 88.203125 L 102.59375 87.335938 L 102.9375 86.46875 L 103.285156 85.601562 L 103.980469 83.875 L 104.324219 83.011719 L 104.671875 82.148438 L 105.019531 81.289062 L 105.367188 80.425781 L 105.710938 79.570312 L 106.058594 78.710938 L 106.753906 77 L 107.097656 76.144531 L 107.792969 74.441406 L 108.140625 73.59375 L 108.484375 72.746094 L 109.179688 71.058594 L 109.523438 70.21875 L 109.871094 69.378906 L 110.566406 67.707031 L 110.910156 66.878906 L 111.257812 66.046875 L 111.953125 64.398438 L 112.296875 63.578125 L 112.644531 62.757812 L 112.992188 61.941406 L 113.339844 61.128906 L 113.683594 60.320312 L 114.03125 59.515625 L 114.726562 57.914062 L 115.070312 57.117188 L 115.765625 55.539062 L 116.113281 54.753906 L 116.457031 53.972656 L 116.804688 53.195312 L 117.152344 52.421875 L 117.5 51.652344 L 117.84375 50.890625 L 118.191406 50.128906 L 118.539062 49.371094 L 118.882812 48.621094 L 119.230469 47.875 L 119.578125 47.132812 L 119.925781 46.394531 L 120.269531 45.660156 L 120.617188 44.933594 L 120.964844 44.210938 L 121.3125 43.492188 L 121.65625 42.777344 L 122.003906 42.070312 L 122.351562 41.367188 L 122.699219 40.671875 L 123.042969 39.980469 L 123.390625 39.292969 L 123.738281 38.613281 L 124.085938 37.9375 L 124.429688 37.269531 L 124.777344 36.605469 L 125.125 35.949219 L 125.472656 35.300781 L 125.816406 34.652344 L 126.164062 34.015625 L 126.511719 33.382812 L 126.859375 32.757812 L 127.203125 32.136719 L 127.550781 31.523438 L 127.898438 30.917969 L 128.242188 30.316406 L 128.589844 29.722656 L 128.9375 29.136719 L 129.285156 28.558594 L 129.628906 27.984375 L 129.976562 27.417969 L 130.324219 26.859375 L 130.671875 26.308594 L 131.015625 25.765625 L 131.363281 25.226562 L 131.710938 24.699219 L 132.058594 24.175781 L 132.402344 23.660156 L 132.75 23.152344 L 133.097656 22.652344 L 133.445312 22.160156 L 133.789062 21.675781 L 134.136719 21.199219 L 134.484375 20.730469 L 134.832031 20.273438 L 135.175781 19.820312 L 135.523438 19.375 L 135.871094 18.9375 L 136.21875 18.507812 L 136.5625 18.089844 L 136.910156 17.675781 L 137.257812 17.273438 L 137.601562 16.878906 L 137.949219 16.492188 L 138.296875 16.113281 L 138.644531 15.742188 L 138.988281 15.382812 L 139.335938 15.027344 L 139.683594 14.683594 L 140.03125 14.347656 L 140.375 14.023438 L 140.722656 13.703125 L 141.070312 13.394531 L 141.417969 13.09375 L 141.761719 12.804688 L 142.109375 12.523438 L 142.457031 12.246094 L 142.804688 11.984375 L 143.148438 11.726562 L 143.496094 11.480469 L 143.84375 11.246094 L 144.191406 11.015625 L 144.535156 10.796875 L 144.882812 10.585938 L 145.230469 10.386719 L 145.574219 10.195312 L 145.921875 10.011719 L 146.269531 9.839844 L 146.617188 9.675781 L 146.960938 9.523438 L 147.308594 9.378906 L 147.65625 9.242188 L 148.003906 9.117188 L 148.347656 9 L 148.695312 8.890625 L 149.042969 8.792969 L 149.390625 8.707031 L 149.734375 8.625 L 150.082031 8.554688 L 150.429688 8.496094 L 150.777344 8.445312 L 151.121094 8.402344 L 151.46875 8.371094 L 151.816406 8.351562 L 152.164062 8.335938 L 152.507812 8.332031 L 152.855469 8.339844 L 153.203125 8.355469 L 153.550781 8.378906 L 153.894531 8.414062 L 154.242188 8.457031 L 154.589844 8.511719 L 154.933594 8.574219 L 155.28125 8.644531 L 155.628906 8.726562 L 155.976562 8.816406 L 156.320312 8.917969 L 156.667969 9.027344 L 157.015625 9.144531 L 157.363281 9.273438 L 157.707031 9.410156 L 158.054688 9.554688 L 158.402344 9.710938 L 158.75 9.875 L 159.09375 10.050781 L 159.441406 10.230469 L 159.789062 10.425781 L 160.136719 10.625 L 160.480469 10.835938 L 160.828125 11.054688 L 161.175781 11.28125 L 161.523438 11.519531 L 161.867188 11.765625 L 162.214844 12.019531 L 162.5625 12.285156 L 162.910156 12.554688 L 163.253906 12.835938 L 163.601562 13.125 L 163.949219 13.425781 L 164.292969 13.730469 L 164.640625 14.046875 L 164.988281 14.371094 L 165.335938 14.703125 L 165.679688 15.042969 L 166.027344 15.390625 L 166.375 15.75 L 166.722656 16.113281 L 167.066406 16.488281 L 167.414062 16.871094 L 167.761719 17.257812 L 168.109375 17.65625 L 168.453125 18.0625 L 168.800781 18.472656 L 169.148438 18.894531 L 169.496094 19.324219 L 169.839844 19.757812 L 170.1875 20.203125 L 170.535156 20.652344 L 170.882812 21.113281 L 171.226562 21.578125 L 171.574219 22.050781 L 171.921875 22.53125 L 172.269531 23.015625 L 172.613281 23.511719 L 172.960938 24.011719 L 173.308594 24.519531 L 173.652344 25.035156 L 174 25.554688 L 174.347656 26.082031 L 174.695312 26.617188 L 175.039062 27.15625 L 175.386719 27.703125 L 175.734375 28.257812 L 176.082031 28.816406 L 176.425781 29.382812 L 176.773438 29.953125 L 177.121094 30.53125 L 177.46875 31.113281 L 177.8125 31.699219 L 178.160156 32.292969 L 178.507812 32.894531 L 178.855469 33.5 L 179.199219 34.109375 L 179.546875 34.722656 L 179.894531 35.34375 L 180.242188 35.96875 L 180.585938 36.597656 L 180.933594 37.230469 L 181.28125 37.871094 L 181.628906 38.515625 L 181.972656 39.164062 L 182.320312 39.8125 L 182.667969 40.46875 L 183.011719 41.128906 L 184.054688 43.132812 L 184.398438 43.808594 L 184.746094 44.488281 L 185.441406 45.855469 L 185.785156 46.542969 L 186.132812 47.234375 L 186.828125 48.625 L 187.171875 49.324219 L 187.867188 50.730469 L 188.214844 51.4375 L 188.558594 52.144531 L 188.90625 52.855469 L 189.253906 53.570312 L 189.601562 54.28125 L 189.945312 55 L 190.292969 55.714844 L 190.988281 57.152344 L 191.332031 57.875 L 191.679688 58.59375 L 192.027344 59.316406 L 192.371094 60.039062 L 192.71875 60.761719 L 193.066406 61.488281 L 193.414062 62.210938 L 193.757812 62.933594 L 194.105469 63.65625 L 194.453125 64.382812 L 194.800781 65.105469 L 195.144531 65.828125 L 195.492188 66.550781 L 195.839844 67.269531 L 196.1875 67.992188 L 196.53125 68.710938 L 196.878906 69.429688 L 197.226562 70.144531 L 197.574219 70.863281 L 197.917969 71.574219 L 198.265625 72.289062 L 198.613281 72.996094 L 198.960938 73.707031 L 199.304688 74.410156 L 199.652344 75.117188 L 200.347656 76.515625 L 200.691406 77.210938 L 201.386719 78.59375 L 201.730469 79.28125 L 202.425781 80.640625 L 202.773438 81.316406 L 203.117188 81.988281 L 203.464844 82.65625 L 203.8125 83.320312 L 204.160156 83.980469 L 204.503906 84.636719 L 204.851562 85.289062 L 205.199219 85.933594 L 205.546875 86.574219 L 205.890625 87.210938 L 206.238281 87.84375 L 206.585938 88.46875 L 206.933594 89.089844 L 207.277344 89.703125 L 207.625 90.3125 L 207.972656 90.917969 L 208.320312 91.515625 L 208.664062 92.105469 L 209.011719 92.691406 L 209.359375 93.269531 L 209.707031 93.84375 L 210.050781 94.40625 L 210.398438 94.964844 L 210.746094 95.515625 L 211.089844 96.0625 L 211.4375 96.597656 L 211.785156 97.128906 L 212.132812 97.652344 L 212.476562 98.164062 L 212.824219 98.671875 L 213.171875 99.171875 L 213.519531 99.660156 L 213.863281 100.144531 L 214.210938 100.617188 L 214.558594 101.085938 L 214.90625 101.542969 L 215.25 101.988281 L 215.597656 102.429688 L 215.945312 102.859375 L 216.292969 103.28125 L 216.636719 103.695312 L 216.984375 104.097656 L 217.332031 104.488281 L 217.679688 104.875 L 218.023438 105.25 L 218.371094 105.613281 L 218.71875 105.96875 L 219.066406 106.3125 L 219.410156 106.644531 L 219.757812 106.96875 L 220.105469 107.285156 L 220.449219 107.585938 L 220.796875 107.878906 L 221.144531 108.160156 L 221.492188 108.433594 L 221.835938 108.691406 L 222.183594 108.941406 L 222.53125 109.179688 L 222.878906 109.40625 L 223.222656 109.625 L 223.570312 109.828125 L 223.917969 110.023438 L 224.265625 110.203125 L 224.609375 110.375 L 224.957031 110.53125 L 225.304688 110.679688 L 225.652344 110.8125 L 225.996094 110.9375 L 226.34375 111.050781 L 226.691406 111.148438 L 227.039062 111.234375 L 227.382812 111.3125 L 227.730469 111.375 L 228.078125 111.425781 L 228.425781 111.464844 L 228.769531 111.488281 L 229.117188 111.503906 L 229.464844 111.503906 L 229.808594 111.492188 L 230.15625 111.472656 L 230.503906 111.433594 L 230.851562 111.386719 L 231.195312 111.324219 L 231.542969 111.253906 L 231.890625 111.167969 L 232.238281 111.066406 L 232.582031 110.957031 L 232.929688 110.832031 L 233.277344 110.695312 L 233.625 110.546875 L 233.96875 110.386719 L 234.316406 110.210938 L 234.664062 110.023438 L 235.011719 109.824219 L 235.355469 109.613281 L 235.703125 109.386719 L 236.050781 109.152344 L 236.398438 108.902344 L 236.742188 108.640625 L 237.089844 108.367188 L 237.4375 108.078125 L 237.78125 107.78125 L 238.128906 107.46875 L 238.476562 107.144531 L 238.824219 106.808594 L 239.167969 106.460938 L 239.515625 106.101562 L 239.863281 105.730469 L 240.210938 105.347656 L 240.554688 104.949219 L 240.902344 104.542969 L 241.25 104.125 L 241.597656 103.695312 L 241.941406 103.253906 L 242.289062 102.796875 L 242.636719 102.335938 L 242.984375 101.859375 L 243.328125 101.371094 L 243.675781 100.875 L 244.023438 100.367188 L 244.371094 99.847656 L 244.714844 99.316406 L 245.0625 98.777344 L 245.410156 98.226562 L 245.757812 97.664062 L 246.101562 97.09375 L 246.449219 96.515625 L 246.796875 95.925781 L 247.140625 95.324219 L 247.488281 94.714844 L 247.835938 94.097656 L 248.183594 93.46875 L 248.527344 92.832031 L 248.875 92.1875 L 249.222656 91.535156 L 249.570312 90.871094 L 249.914062 90.203125 L 250.261719 89.523438 L 250.609375 88.839844 L 250.957031 88.144531 L 251.300781 87.445312 L 251.648438 86.738281 L 252.34375 85.300781 L 252.6875 84.570312 L 253.035156 83.835938 L 253.382812 83.097656 L 253.730469 82.347656 L 254.074219 81.597656 L 254.421875 80.839844 L 254.769531 80.078125 L 255.117188 79.308594 L 255.460938 78.535156 L 255.808594 77.761719 L 256.15625 76.980469 L 256.5 76.195312 L 256.847656 75.40625 L 257.195312 74.613281 L 257.542969 73.816406 L 257.886719 73.019531 L 258.234375 72.21875 L 258.929688 70.609375 L 259.273438 69.800781 L 259.96875 68.183594 L 260.316406 67.371094 L 260.660156 66.558594 L 261.703125 64.121094 L 262.046875 63.308594 L 262.394531 62.5 L 262.742188 61.6875 L 263.089844 60.878906 L 263.433594 60.070312 L 263.78125 59.261719 L 264.128906 58.460938 L 264.476562 57.65625 L 264.820312 56.859375 L 265.167969 56.0625 L 265.515625 55.269531 L 265.859375 54.480469 L 266.207031 53.691406 L 266.554688 52.910156 L 266.902344 52.132812 L 267.246094 51.363281 L 267.59375 50.59375 L 267.941406 49.832031 L 268.289062 49.074219 L 268.632812 48.324219 L 268.980469 47.578125 L 269.328125 46.839844 L 269.675781 46.109375 L 270.019531 45.382812 L 270.367188 44.664062 L 270.714844 43.957031 L 271.0625 43.253906 L 271.40625 42.558594 L 271.753906 41.871094 L 272.101562 41.195312 L 272.449219 40.527344 L 272.792969 39.867188 L 273.140625 39.21875 L 273.488281 38.578125 L 273.835938 37.945312 L 274.179688 37.328125 L 274.527344 36.71875 L 274.875 36.117188 L 275.21875 35.53125 L 275.566406 34.953125 L 275.914062 34.386719 L 276.261719 33.835938 L 276.605469 33.292969 L 276.953125 32.761719 L 277.300781 32.246094 L 277.648438 31.742188 L 277.992188 31.25 L 278.339844 30.769531 L 278.6875 30.304688 L 279.035156 29.851562 L 279.378906 29.414062 L 279.726562 28.992188 L 280.074219 28.582031 L 280.421875 28.183594 L 280.765625 27.804688 L 281.113281 27.4375 L 281.460938 27.082031 L 281.808594 26.746094 L 282.152344 26.425781 L 282.5 26.117188 L 282.847656 25.828125 L 283.195312 25.550781 L 283.539062 25.292969 L 283.886719 25.046875 L 284.234375 24.820312 L 284.578125 24.609375 L 284.925781 24.414062 L 285.273438 24.234375 L 285.621094 24.074219 L 285.964844 23.925781 L 286.3125 23.796875 L 286.660156 23.6875 L 287.007812 23.59375 L 287.351562 23.515625 L 287.699219 23.453125 L 288.046875 23.410156 L 288.394531 23.382812 L 288.738281 23.375 L 289.085938 23.386719 L 289.433594 23.410156 L 289.78125 23.453125 L 290.125 23.515625 L 290.472656 23.59375 L 290.820312 23.691406 L 291.167969 23.804688 L 291.511719 23.9375 L 291.859375 24.085938 L 292.207031 24.253906 L 292.554688 24.441406 L 292.898438 24.644531 L 293.246094 24.863281 L 293.59375 25.101562 L 293.9375 25.355469 L 294.285156 25.628906 L 294.632812 25.921875 L 294.980469 26.230469 L 295.324219 26.554688 L 295.671875 26.898438 L 296.019531 27.261719 L 296.367188 27.636719 L 296.710938 28.035156 L 297.058594 28.445312 L 297.40625 28.875 L 297.753906 29.324219 L 298.097656 29.785156 L 298.445312 30.265625 L 298.792969 30.761719 L 299.140625 31.277344 L 299.484375 31.808594 L 299.832031 32.355469 L 300.179688 32.917969 L 300.527344 33.496094 L 300.871094 34.089844 L 301.21875 34.699219 L 301.566406 35.328125 L 301.914062 35.96875 L 302.257812 36.628906 L 302.605469 37.300781 L 302.953125 37.988281 L 303.296875 38.691406 L 303.644531 39.40625 L 303.992188 40.140625 L 304.339844 40.886719 L 304.683594 41.648438 L 305.03125 42.421875 L 305.378906 43.210938 L 305.726562 44.011719 L 306.070312 44.828125 L 306.417969 45.65625 L 306.765625 46.5 L 307.113281 47.355469 L 307.457031 48.222656 L 307.804688 49.101562 L 308.152344 49.992188 L 308.5 50.898438 L 308.84375 51.8125 L 309.191406 52.742188 L 309.539062 53.679688 L 309.886719 54.628906 L 310.230469 55.589844 L 310.578125 56.5625 L 310.925781 57.542969 L 311.273438 58.535156 L 311.617188 59.535156 L 311.964844 60.546875 L 312.3125 61.566406 L 312.65625 62.597656 L 313.003906 63.636719 L 313.351562 64.683594 L 313.699219 65.738281 L 314.042969 66.804688 L 314.390625 67.875 L 314.738281 68.953125 L 315.085938 70.042969 L 315.429688 71.136719 L 315.777344 72.234375 L 316.125 73.34375 L 316.472656 74.457031 L 316.816406 75.578125 L 317.164062 76.703125 L 317.511719 77.835938 L 317.859375 78.972656 L 318.203125 80.113281 L 318.550781 81.257812 L 318.898438 82.410156 L 319.246094 83.566406 L 319.589844 84.726562 L 319.9375 85.886719 L 320.285156 87.054688 L 320.628906 88.226562 L 320.976562 89.398438 L 321.324219 90.574219 L 321.671875 91.753906 L 322.015625 92.933594 L 323.058594 96.484375 L 323.402344 97.671875 L 323.75 98.863281 L 324.097656 100.050781 L 324.445312 101.242188 L 324.789062 102.429688 L 325.484375 104.8125 L 325.832031 106 L 326.175781 107.191406 L 326.871094 109.566406 L 327.21875 110.75 L 327.5625 111.9375 L 327.910156 113.121094 L 328.605469 115.480469 L 328.949219 116.65625 L 329.296875 117.832031 L 329.644531 119 L 329.988281 120.171875 L 330.335938 121.335938 L 331.03125 123.65625 L 331.375 124.8125 L 332.070312 127.109375 L 332.417969 128.253906 L 332.761719 129.390625 L 333.109375 130.523438 L 333.457031 131.652344 L 333.804688 132.777344 L 334.148438 133.898438 L 334.496094 135.011719 L 334.84375 136.121094 L 335.191406 137.222656 L 335.535156 138.320312 L 335.882812 139.414062 L 336.230469 140.5 L 336.578125 141.578125 L 336.921875 142.652344 L 337.269531 143.71875 L 337.617188 144.78125 L 337.964844 145.835938 L 338.308594 146.882812 L 338.65625 147.921875 L 339.003906 148.957031 L 339.347656 149.984375 L 339.695312 151.003906 L 340.042969 152.015625 L 340.390625 153.019531 L 340.734375 154.019531 L 341.082031 155.007812 L 341.429688 155.992188 L 341.777344 156.964844 L 342.121094 157.933594 L 342.46875 158.890625 L 342.816406 159.84375 L 343.164062 160.785156 L 343.507812 161.722656 L 343.855469 162.648438 L 344.203125 163.566406 L 344.550781 164.476562 L 344.894531 165.378906 L 345.242188 166.273438 L 345.589844 167.160156 L 345.9375 168.039062 L 346.28125 168.90625 L 346.628906 169.765625 L 346.976562 170.617188 L 347.324219 171.460938 L 347.667969 172.296875 L 348.015625 173.121094 L 348.363281 173.941406 L 348.707031 174.75 L 349.054688 175.546875 L 349.402344 176.339844 L 349.75 177.121094 L 350.09375 177.898438 L 350.441406 178.660156 L 350.789062 179.417969 L 351.136719 180.167969 L 351.480469 180.90625 L 351.828125 181.636719 L 352.175781 182.355469 L 352.523438 183.070312 L 352.867188 183.773438 L 353.214844 184.46875 L 353.5625 185.15625 L 353.910156 185.835938 L 354.253906 186.503906 L 354.601562 187.167969 L 354.949219 187.820312 L 355.296875 188.464844 L 355.640625 189.097656 L 355.988281 189.726562 L 356.335938 190.34375 L 356.683594 190.957031 L 357.027344 191.558594 L 357.375 192.152344 L 357.722656 192.734375 L 358.066406 193.3125 L 358.414062 193.882812 L 358.761719 194.441406 L 359.109375 194.996094 L 359.453125 195.539062 L 359.800781 196.078125 L 360.148438 196.605469 "/>
</svg>
