<?xml version="1.0" encoding="UTF-8"?>
<svg xmlns="http://www.w3.org/2000/svg" xmlns:xlink="http://www.w3.org/1999/xlink" width="374" height="225" viewBox="0 0 374 225">
<rect x="-37.4" y="-22.5" width="448.8" height="270" fill="rgb(100%, 100%, 100%)" fill-opacity="1"/>
<path fill="none" stroke-width="7.5" stroke-linecap="round" stroke-linejoin="round" stroke="rgb(0%, 0%, 0%)" stroke-opacity="1" stroke-miterlimit="10" d="M 13.851562 216.667969 L 18.011719 216.667969 L 18.359375 216.664062 L 27.71875 216.664062 L 28.0625 216.660156 L 31.878906 216.660156 L 32.222656 216.65625 L 34.652344 216.65625 L 34.996094 216.652344 L 36.730469 216.652344 L 37.078125 216.648438 L 38.117188 216.648438 L 38.464844 216.644531 L 39.503906 216.644531 L 39.851562 216.640625 L 40.890625 216.640625 L 41.238281 216.636719 L 41.929688 216.636719 L 42.277344 216.632812 L 42.96875 216.632812 L 43.316406 216.628906 L 43.664062 216.628906 L 44.011719 216.625 L 44.355469 216.625 L 44.703125 216.621094 L 45.050781 216.621094 L 45.394531 216.617188 L 45.742188 216.617188 L 46.089844 216.613281 L 46.4375 216.613281 L 46.78125 216.609375 L 47.128906 216.609375 L 47.824219 216.601562 L 48.167969 216.601562 L 49.210938 216.589844 L 49.554688 216.589844 L 50.597656 216.578125 L 50.941406 216.574219 L 51.984375 216.5625 L 52.328125 216.558594 L 53.371094 216.546875 L 53.714844 216.539062 L 54.410156 216.53125 L 54.753906 216.527344 L 55.101562 216.519531 L 55.449219 216.515625 L 55.796875 216.507812 L 56.140625 216.503906 L 56.835938 216.488281 L 57.183594 216.484375 L 57.527344 216.476562 L 58.570312 216.453125 L 58.914062 216.445312 L 59.261719 216.4375 L 59.609375 216.425781 L 59.957031 216.417969 L 60.300781 216.410156 L 60.648438 216.398438 L 60.996094 216.390625 L 61.34375 216.378906 L 61.6875 216.367188 L 62.035156 216.359375 L 62.382812 216.347656 L 62.726562 216.335938 L 63.074219 216.324219 L 63.421875 216.308594 L 63.769531 216.296875 L 64.113281 216.285156 L 64.808594 216.253906 L 65.15625 216.242188 L 65.5 216.226562 L 65.847656 216.210938 L 66.195312 216.191406 L 66.542969 216.175781 L 66.886719 216.160156 L 67.929688 216.101562 L 68.273438 216.082031 L 68.96875 216.042969 L 69.316406 216.019531 L 69.660156 216 L 70.355469 215.953125 L 70.703125 215.925781 L 71.046875 215.902344 L 71.742188 215.847656 L 72.085938 215.820312 L 72.433594 215.792969 L 72.78125 215.761719 L 73.128906 215.734375 L 73.472656 215.703125 L 73.820312 215.667969 L 74.167969 215.636719 L 74.515625 215.601562 L 74.859375 215.566406 L 75.207031 215.53125 L 75.902344 215.453125 L 76.246094 215.414062 L 76.59375 215.375 L 77.289062 215.289062 L 77.632812 215.246094 L 78.675781 215.105469 L 79.019531 215.054688 L 79.714844 214.953125 L 80.0625 214.898438 L 80.40625 214.84375 L 81.101562 214.726562 L 81.445312 214.667969 L 81.792969 214.605469 L 82.140625 214.539062 L 82.488281 214.476562 L 82.832031 214.40625 L 83.179688 214.339844 L 83.527344 214.269531 L 83.875 214.195312 L 84.21875 214.121094 L 84.914062 213.964844 L 85.261719 213.882812 L 85.605469 213.800781 L 86.300781 213.628906 L 86.648438 213.539062 L 86.992188 213.449219 L 87.339844 213.355469 L 87.6875 213.257812 L 88.035156 213.15625 L 88.378906 213.054688 L 88.726562 212.953125 L 89.421875 212.734375 L 89.765625 212.625 L 90.460938 212.390625 L 90.804688 212.269531 L 91.5 212.019531 L 91.847656 211.890625 L 92.191406 211.757812 L 92.539062 211.621094 L 92.886719 211.480469 L 93.234375 211.335938 L 93.578125 211.191406 L 93.925781 211.042969 L 94.273438 210.890625 L 94.621094 210.730469 L 94.964844 210.570312 L 95.3125 210.40625 L 95.660156 210.238281 L 96.007812 210.066406 L 96.351562 209.894531 L 96.699219 209.714844 L 97.046875 209.53125 L 97.394531 209.34375 L 97.738281 209.148438 L 98.085938 208.953125 L 98.433594 208.753906 L 98.78125 208.550781 L 99.125 208.339844 L 99.472656 208.125 L 99.820312 207.90625 L 100.164062 207.683594 L 100.511719 207.457031 L 100.859375 207.222656 L 101.207031 206.984375 L 101.550781 206.742188 L 101.898438 206.496094 L 102.246094 206.242188 L 102.59375 205.984375 L 102.9375 205.722656 L 103.285156 205.453125 L 103.632812 205.179688 L 103.980469 204.898438 L 104.324219 204.613281 L 104.671875 204.324219 L 105.019531 204.027344 L 105.367188 203.722656 L 105.710938 203.414062 L 106.058594 203.101562 L 106.40625 202.78125 L 106.753906 202.453125 L 107.097656 202.121094 L 107.445312 201.78125 L 107.792969 201.4375 L 108.140625 201.085938 L 108.484375 200.726562 L 108.832031 200.359375 L 109.179688 199.988281 L 109.523438 199.609375 L 109.871094 199.226562 L 110.21875 198.832031 L 110.566406 198.433594 L 110.910156 198.027344 L 111.257812 197.613281 L 111.605469 197.191406 L 111.953125 196.765625 L 112.296875 196.328125 L 112.644531 195.886719 L 112.992188 195.4375 L 113.339844 194.976562 L 113.683594 194.511719 L 114.03125 194.039062 L 114.378906 193.558594 L 114.726562 193.070312 L 115.070312 192.570312 L 115.417969 192.066406 L 115.765625 191.554688 L 116.113281 191.03125 L 116.457031 190.503906 L 116.804688 189.964844 L 117.152344 189.417969 L 117.5 188.863281 L 117.84375 188.300781 L 118.191406 187.730469 L 118.539062 187.152344 L 118.882812 186.5625 L 119.230469 185.964844 L 119.578125 185.359375 L 119.925781 184.746094 L 120.269531 184.121094 L 120.617188 183.488281 L 120.964844 182.847656 L 121.3125 182.199219 L 121.65625 181.539062 L 122.003906 180.871094 L 122.351562 180.195312 L 122.699219 179.507812 L 123.042969 178.8125 L 123.390625 178.109375 L 123.738281 177.394531 L 124.085938 176.671875 L 124.429688 175.941406 L 124.777344 175.199219 L 125.125 174.449219 L 125.472656 173.691406 L 125.816406 172.921875 L 126.164062 172.140625 L 126.511719 171.355469 L 126.859375 170.558594 L 127.203125 169.75 L 127.550781 168.9375 L 127.898438 168.109375 L 128.242188 167.277344 L 128.589844 166.433594 L 128.9375 165.582031 L 129.285156 164.71875 L 129.628906 163.847656 L 129.976562 162.964844 L 130.324219 162.078125 L 130.671875 161.175781 L 131.015625 160.269531 L 131.363281 159.351562 L 131.710938 158.425781 L 132.058594 157.492188 L 132.402344 156.546875 L 132.75 155.59375 L 133.097656 154.632812 L 133.445312 153.660156 L 133.789062 152.679688 L 134.136719 151.691406 L 134.484375 150.695312 L 134.832031 149.6875 L 135.175781 148.675781 L 135.523438 147.652344 L 135.871094 146.621094 L 136.21875 145.582031 L 136.5625 144.535156 L 136.910156 143.476562 L 137.257812 142.414062 L 137.601562 141.34375 L 137.949219 140.261719 L 138.296875 139.175781 L 138.644531 138.082031 L 138.988281 136.980469 L 139.335938 135.871094 L 139.683594 134.753906 L 140.03125 133.628906 L 140.375 132.5 L 140.722656 131.359375 L 141.070312 130.214844 L 141.417969 129.066406 L 141.761719 127.90625 L 142.109375 126.742188 L 142.457031 125.574219 L 142.804688 124.398438 L 143.148438 123.214844 L 143.496094 122.027344 L 143.84375 120.835938 L 144.191406 119.636719 L 144.535156 118.433594 L 144.882812 117.226562 L 145.230469 116.011719 L 145.574219 114.796875 L 145.921875 113.574219 L 146.269531 112.347656 L 146.617188 111.117188 L 146.960938 109.882812 L 147.65625 107.40625 L 148.003906 106.160156 L 148.347656 104.914062 L 148.695312 103.664062 L 149.390625 101.15625 L 149.734375 99.898438 L 150.429688 97.382812 L 150.777344 96.121094 L 151.121094 94.855469 L 151.46875 93.59375 L 152.164062 91.0625 L 152.507812 89.800781 L 153.203125 87.269531 L 153.550781 86.007812 L 153.894531 84.742188 L 154.242188 83.480469 L 154.589844 82.222656 L 154.933594 80.960938 L 155.28125 79.707031 L 155.628906 78.449219 L 155.976562 77.199219 L 156.320312 75.949219 L 156.667969 74.703125 L 157.363281 72.21875 L 157.707031 70.984375 L 158.054688 69.753906 L 158.402344 68.527344 L 158.75 67.304688 L 159.09375 66.085938 L 159.441406 64.875 L 159.789062 63.667969 L 160.136719 62.46875 L 160.480469 61.273438 L 160.828125 60.085938 L 161.175781 58.90625 L 161.523438 57.730469 L 161.867188 56.566406 L 162.214844 55.40625 L 162.5625 54.253906 L 162.910156 53.109375 L 163.253906 51.976562 L 163.601562 50.851562 L 163.949219 49.734375 L 164.292969 48.625 L 164.640625 47.527344 L 164.988281 46.4375 L 165.335938 45.363281 L 165.679688 44.292969 L 166.027344 43.238281 L 166.375 42.191406 L 166.722656 41.15625 L 167.066406 40.132812 L 167.414062 39.121094 L 167.761719 38.125 L 168.109375 37.136719 L 168.453125 36.164062 L 168.800781 35.203125 L 169.148438 34.253906 L 169.496094 33.320312 L 169.839844 32.398438 L 170.1875 31.492188 L 170.535156 30.597656 L 170.882812 29.71875 L 171.226562 28.855469 L 171.574219 28.007812 L 171.921875 27.175781 L 172.269531 26.355469 L 172.613281 25.554688 L 172.960938 24.765625 L 173.308594 23.996094 L 173.652344 23.242188 L 174 22.503906 L 174.347656 21.78125 L 174.695312 21.078125 L 175.039062 20.390625 L 175.386719 19.722656 L 175.734375 19.070312 L 176.082031 18.433594 L 176.425781 17.816406 L 176.773438 17.21875 L 177.121094 16.636719 L 177.46875 16.078125 L 177.8125 15.53125 L 178.160156 15.007812 L 178.507812 14.503906 L 178.855469 14.015625 L 179.199219 13.546875 L 179.546875 13.101562 L 179.894531 12.671875 L 180.242188 12.261719 L 180.585938 11.871094 L 180.933594 11.503906 L 181.28125 11.152344 L 181.628906 10.824219 L 181.972656 10.515625 L 182.320312 10.222656 L 182.667969 9.957031 L 183.011719 9.707031 L 183.359375 9.476562 L 183.707031 9.269531 L 184.054688 9.082031 L 184.398438 8.917969 L 184.746094 8.769531 L 185.09375 8.644531 L 185.441406 8.542969 L 185.785156 8.457031 L 186.132812 8.394531 L 186.480469 8.355469 L 186.828125 8.332031 L 187.171875 8.332031 L 187.519531 8.355469 L 187.867188 8.394531 L 188.214844 8.457031 L 188.558594 8.542969 L 188.90625 8.644531 L 189.253906 8.769531 L 189.601562 8.917969 L 189.945312 9.082031 L 190.292969 9.269531 L 190.640625 9.476562 L 190.988281 9.707031 L 191.332031 9.957031 L 191.679688 10.222656 L 192.027344 10.515625 L 192.371094 10.824219 L 192.71875 11.152344 L 193.066406 11.503906 L 193.414062 11.871094 L 193.757812 12.261719 L 194.105469 12.671875 L 194.453125 13.101562 L 194.800781 13.546875 L 195.144531 14.015625 L 195.492188 14.503906 L 195.839844 15.007812 L 196.1875 15.53125 L 196.53125 16.078125 L 196.878906 16.636719 L 197.226562 17.21875 L 197.574219 17.816406 L 197.917969 18.433594 L 198.265625 19.070312 L 198.613281 19.722656 L 198.960938 20.390625 L 199.304688 21.078125 L 199.652344 21.78125 L 200 22.503906 L 200.347656 23.242188 L 200.691406 23.996094 L 201.039062 24.765625 L 201.386719 25.554688 L 201.730469 26.355469 L 202.078125 27.175781 L 202.425781 28.007812 L 202.773438 28.855469 L 203.117188 29.71875 L 203.464844 30.597656 L 203.8125 31.492188 L 204.160156 32.398438 L 204.503906 33.320312 L 204.851562 34.253906 L 205.199219 35.203125 L 205.546875 36.164062 L 205.890625 37.136719 L 206.238281 38.125 L 206.585938 39.121094 L 206.933594 40.132812 L 207.277344 41.15625 L 207.625 42.191406 L 207.972656 43.238281 L 208.320312 44.292969 L 208.664062 45.363281 L 209.011719 46.4375 L 209.359375 47.527344 L 209.707031 48.625 L 210.050781 49.734375 L 210.398438 50.851562 L 210.746094 51.976562 L 211.089844 53.109375 L 211.4375 54.253906 L 211.785156 55.40625 L 212.132812 56.566406 L 212.476562 57.730469 L 212.824219 58.90625 L 213.171875 60.085938 L 213.519531 61.273438 L 213.863281 62.46875 L 214.210938 63.667969 L 214.558594 64.875 L 214.90625 66.085938 L 215.25 67.304688 L 215.597656 68.527344 L 215.945312 69.753906 L 216.292969 70.984375 L 216.636719 72.21875 L 217.332031 74.703125 L 217.679688 75.949219 L 218.023438 77.199219 L 218.371094 78.449219 L 218.71875 79.707031 L 219.066406 80.960938 L 219.410156 82.222656 L 219.757812 83.480469 L 220.105469 84.742188 L 220.449219 86.007812 L 220.796875 87.269531 L 221.492188 89.800781 L 221.835938 91.0625 L 222.53125 93.59375 L 222.878906 94.855469 L 223.222656 96.121094 L 223.570312 97.382812 L 224.265625 99.898438 L 224.609375 101.15625 L 225.304688 103.664062 L 225.652344 104.914062 L 225.996094 106.160156 L 226.34375 107.40625 L 227.039062 109.882812 L 227.382812 111.117188 L 227.730469 112.347656 L 228.078125 113.574219 L 228.425781 114.796875 L 228.769531 116.011719 L 229.117188 117.226562 L 229.464844 118.433594 L 229.808594 119.636719 L 230.15625 120.835938 L 230.503906 122.027344 L 230.851562 123.214844 L 231.195312 124.398438 L 231.542969 125.574219 L 231.890625 126.742188 L 232.238281 127.90625 L 232.582031 129.066406 L 232.929688 130.214844 L 233.277344 131.359375 L 233.625 132.5 L 233.96875 133.628906 L 234.316406 134.753906 L 234.664062 135.871094 L 235.011719 136.980469 L 235.355469 138.082031 L 235.703125 139.175781 L 236.050781 140.261719 L 236.398438 141.34375 L 236.742188 142.414062 L 237.089844 143.476562 L 237.4375 144.535156 L 237.78125 145.582031 L 238.128906 146.621094 L 238.476562 147.652344 L 238.824219 148.675781 L 239.167969 149.6875 L 239.515625 150.695312 L 239.863281 151.691406 L 240.210938 152.679688 L 240.554688 153.660156 L 240.902344 154.632812 L 241.25 155.59375 L 241.597656 156.546875 L 241.941406 157.492188 L 242.289062 158.425781 L 242.636719 159.351562 L 242.984375 160.269531 L 243.328125 161.175781 L 243.675781 162.078125 L 244.023438 162.964844 L 244.371094 163.847656 L 244.714844 164.71875 L 245.0625 165.582031 L 245.410156 166.433594 L 245.757812 167.277344 L 246.101562 168.109375 L 246.449219 168.9375 L 246.796875 169.75 L 247.140625 170.558594 L 247.488281 171.355469 L 247.835938 172.140625 L 248.183594 172.921875 L 248.527344 173.691406 L 248.875 174.449219 L 249.222656 175.199219 L 249.570312 175.941406 L 249.914062 176.671875 L 250.261719 177.394531 L 250.609375 178.109375 L 250.957031 178.8125 L 251.300781 179.507812 L 251.648438 180.195312 L 251.996094 180.871094 L 252.34375 181.539062 L 252.6875 182.199219 L 253.035156 182.847656 L 253.382812 183.488281 L 253.730469 184.121094 L 254.074219 184.746094 L 254.421875 185.359375 L 254.769531 185.964844 L 255.117188 186.5625 L 255.460938 187.152344 L 255.808594 187.730469 L 256.15625 188.300781 L 256.5 188.863281 L 256.847656 189.417969 L 257.195312 189.964844 L 257.542969 190.503906 L 257.886719 191.03125 L 258.234375 191.554688 L 258.582031 192.066406 L 258.929688 192.570312 L 259.273438 193.070312 L 259.621094 193.558594 L 259.96875 194.039062 L 260.316406 194.511719 L 260.660156 194.976562 L 261.007812 195.4375 L 261.355469 195.886719 L 261.703125 196.328125 L 262.046875 196.765625 L 262.394531 197.191406 L 262.742188 197.613281 L 263.089844 198.027344 L 263.433594 198.433594 L 263.78125 198.832031 L 264.128906 199.226562 L 264.476562 199.609375 L 264.820312 199.988281 L 265.167969 200.359375 L 265.515625 200.726562 L 265.859375 201.085938 L 266.207031 201.4375 L 266.554688 201.78125 L 266.902344 202.121094 L 267.246094 202.453125 L 267.59375 202.78125 L 267.941406 203.101562 L 268.289062 203.414062 L 268.632812 203.722656 L 268.980469 204.027344 L 269.328125 204.324219 L 269.675781 204.613281 L 270.019531 204.898438 L 270.367188 205.179688 L 270.714844 205.453125 L 271.0625 205.722656 L 271.40625 205.984375 L 271.753906 206.242188 L 272.101562 206.496094 L 272.449219 206.742188 L 272.792969 206.984375 L 273.140625 207.222656 L 273.488281 207.457031 L 273.835938 207.683594 L 274.179688 207.90625 L 274.527344 208.125 L 274.875 208.339844 L 275.21875 208.550781 L 275.566406 208.753906 L 275.914062 208.953125 L 276.261719 209.148438 L 276.605469 209.34375 L 276.953125 209.53125 L 277.300781 209.714844 L 277.648438 209.894531 L 277.992188 210.066406 L 278.339844 210.238281 L 278.6875 210.40625 L 279.035156 210.570312 L 279.378906 210.730469 L 279.726562 210.890625 L 280.074219 211.042969 L 280.421875 211.191406 L 280.765625 211.335938 L 281.113281 211.480469 L 281.460938 211.621094 L 281.808594 211.757812 L 282.152344 211.890625 L 282.5 212.019531 L 283.195312 212.269531 L 283.539062 212.390625 L 284.234375 212.625 L 284.578125 212.734375 L 285.273438 212.953125 L 285.621094 213.054688 L 285.964844 213.15625 L 286.3125 213.257812 L 286.660156 213.355469 L 287.007812 213.449219 L 287.351562 213.539062 L 287.699219 213.628906 L 288.394531 213.800781 L 288.738281 213.882812 L 289.085938 213.964844 L 289.78125 214.121094 L 290.125 214.195312 L 290.472656 214.269531 L 290.820312 214.339844 L 291.167969 214.40625 L 291.511719 214.476562 L 291.859375 214.539062 L 292.207031 214.605469 L 292.554688 214.667969 L 292.898438 214.726562 L 293.59375 214.84375 L 293.9375 214.898438 L 294.285156 214.953125 L 294.980469 215.054688 L 295.324219 215.105469 L 296.367188 215.246094 L 296.710938 215.289062 L 297.40625 215.375 L 297.753906 215.414062 L 298.097656 215.453125 L 298.792969 215.53125 L 299.140625 215.566406 L 299.484375 215.601562 L 299.832031 215.636719 L 300.179688 215.667969 L 300.527344 215.703125 L 300.871094 215.734375 L 301.21875 215.761719 L 301.566406 215.792969 L 301.914062 215.820312 L 302.257812 215.847656 L 302.953125 215.902344 L 303.296875 215.925781 L 303.644531 215.953125 L 304.339844 216 L 304.683594 216.019531 L 305.03125 216.042969 L 305.726562 216.082031 L 306.070312 216.101562 L 307.113281 216.160156 L 307.457031 216.175781 L 307.804688 216.191406 L 308.152344 216.210938 L 308.5 216.226562 L 308.84375 216.242188 L 309.191406 216.253906 L 309.886719 216.285156 L 310.230469 216.296875 L 310.578125 216.308594 L 310.925781 216.324219 L 311.273438 216.335938 L 311.617188 216.347656 L 311.964844 216.359375 L 312.3125 216.367188 L 312.65625 216.378906 L 313.003906 216.390625 L 313.351562 216.398438 L 313.699219 216.410156 L 314.042969 216.417969 L 314.390625 216.425781 L 314.738281 216.4375 L 315.085938 216.445312 L 315.429688 216.453125 L 316.472656 216.476562 L 316.816406 216.484375 L 317.164062 216.488281 L 317.859375 216.503906 L 318.203125 216.507812 L 318.550781 216.515625 L 318.898438 216.519531 L 319.246094 216.527344 L 319.589844 216.53125 L 320.285156 216.539062 L 320.628906 216.546875 L 321.671875 216.558594 L 322.015625 216.5625 L 323.058594 216.574219 L 323.402344 216.578125 L 324.445312 216.589844 L 324.789062 216.589844 L 325.832031 216.601562 L 326.175781 216.601562 L 326.871094 216.609375 L 327.21875 216.609375 L 327.5625 216.613281 L 327.910156 216.613281 L 328.257812 216.617188 L 328.605469 216.617188 L 328.949219 216.621094 L 329.296875 216.621094 L 329.644531 216.625 L 329.988281 216.625 L 330.335938 216.628906 L 330.683594 216.628906 L 331.03125 216.632812 L 331.722656 216.632812 L 332.070312 216.636719 L 332.761719 216.636719 L 333.109375 216.640625 L 334.148438 216.640625 L 334.496094 216.644531 L 335.535156 216.644531 L 335.882812 216.648438 L 336.921875 216.648438 L 337.269531 216.652344 L 339.003906 216.652344 L 339.347656 216.65625 L 341.777344 216.65625 L 342.121094 216.660156 L 345.9375 216.660156 L 346.28125 216.664062 L 355.640625 216.664062 L 355.988281 216.667969 L 360.148438 216.667969 "/>
</svg>
