<?xml version="1.0" encoding="UTF-8"?>
<svg xmlns="http://www.w3.org/2000/svg" xmlns:xlink="http://www.w3.org/1999/xlink" width="216.57" height="229.855" viewBox="0 0 216.57 229.855">
<defs>
<clipPath id="clip-0">
<path clip-rule="nonzero" d="M 0 150 L 80 150 L 80 229.855469 L 0 229.855469 Z M 0 150 "/>
</clipPath>
</defs>
<g clip-path="url(#clip-0)">
<path fill-rule="nonzero" fill="rgb(76.460266%, 90.023804%, 97.341919%)" fill-opacity="1" d="M 79.703125 190.003906 C 79.703125 167.996094 61.859375 150.152344 39.851562 150.152344 C 17.839844 150.152344 0 167.996094 0 190.003906 C 0 212.011719 17.839844 229.855469 39.851562 229.855469 C 61.859375 229.855469 79.703125 212.011719 79.703125 190.003906 Z M 79.703125 190.003906 "/>
</g>
<path fill-rule="nonzero" fill="rgb(53.250122%, 80.712891%, 94.795227%)" fill-opacity="1" d="M 74.71875 190.003906 C 74.71875 170.746094 59.109375 155.132812 39.851562 155.132812 C 20.59375 155.132812 4.980469 170.746094 4.980469 190.003906 C 4.980469 209.261719 20.59375 224.875 39.851562 224.875 C 59.109375 224.875 74.71875 209.261719 74.71875 190.003906 Z M 74.71875 190.003906 "/>
<path fill-rule="nonzero" fill="rgb(7.817078%, 64.082336%, 90.036011%)" fill-opacity="1" d="M 69.738281 190.003906 C 69.738281 173.496094 56.359375 160.117188 39.851562 160.117188 C 23.34375 160.117188 9.960938 173.496094 9.960938 190.003906 C 9.960938 206.511719 23.34375 219.890625 39.851562 219.890625 C 56.359375 219.890625 69.738281 206.511719 69.738281 190.003906 Z M 69.738281 190.003906 "/>
<path fill-rule="nonzero" fill="rgb(3.967285%, 57.144165%, 85.704041%)" fill-opacity="1" d="M 64.757812 190.003906 C 64.757812 176.25 53.605469 165.097656 39.851562 165.097656 C 26.09375 165.097656 14.945312 176.25 14.945312 190.003906 C 14.945312 203.761719 26.09375 214.910156 39.851562 214.910156 C 53.605469 214.910156 64.757812 203.761719 64.757812 190.003906 Z M 64.757812 190.003906 "/>
<path fill-rule="nonzero" fill="rgb(5.059814%, 54.202271%, 83.49762%)" fill-opacity="1" d="M 52.304688 190.003906 C 52.304688 183.125 46.730469 177.550781 39.851562 177.550781 C 32.972656 177.550781 27.398438 183.125 27.398438 190.003906 C 27.398438 196.882812 32.972656 202.457031 39.851562 202.457031 C 46.730469 202.457031 52.304688 196.882812 52.304688 190.003906 Z M 52.304688 190.003906 "/>
<path fill-rule="nonzero" fill="rgb(99.061584%, 86.488342%, 71.136475%)" fill-opacity="1" d="M 209.765625 76.449219 C 216.574219 69.640625 209.476562 51.503906 193.914062 35.941406 C 178.351562 20.378906 160.214844 13.28125 153.40625 20.089844 C 146.597656 26.898438 153.695312 45.035156 169.257812 60.597656 C 184.820312 76.160156 202.957031 83.257812 209.765625 76.449219 Z M 209.765625 76.449219 "/>
<path fill-rule="nonzero" fill="rgb(99.061584%, 86.488342%, 71.136475%)" fill-opacity="1" d="M 207.179688 19.921875 C 207.179688 8.917969 198.257812 -0.00390625 187.253906 -0.00390625 C 176.25 -0.00390625 167.328125 8.917969 167.328125 19.921875 C 167.328125 30.929688 176.25 39.847656 187.253906 39.847656 C 198.257812 39.847656 207.179688 30.929688 207.179688 19.921875 Z M 207.179688 19.921875 "/>
<path fill-rule="nonzero" fill="rgb(98.149109%, 74.000549%, 46.0495%)" fill-opacity="1" d="M 206.242188 72.925781 C 211.105469 68.0625 204.007812 53.082031 190.390625 39.464844 C 176.773438 25.847656 161.792969 18.75 156.929688 23.613281 C 152.066406 28.476562 159.160156 43.457031 172.777344 57.074219 C 186.398438 70.695312 201.378906 77.789062 206.242188 72.925781 Z M 206.242188 72.925781 "/>
<path fill-rule="nonzero" fill="rgb(98.149109%, 74.000549%, 46.0495%)" fill-opacity="1" d="M 202.199219 19.921875 C 202.199219 11.667969 195.507812 4.980469 187.253906 4.980469 C 179 4.980469 172.308594 11.667969 172.308594 19.921875 C 172.308594 28.175781 179 34.867188 187.253906 34.867188 C 195.507812 34.867188 202.199219 28.175781 202.199219 19.921875 Z M 202.199219 19.921875 "/>
<path fill-rule="nonzero" fill="rgb(96.398926%, 52.101135%, 7.200623%)" fill-opacity="1" d="M 202.71875 69.402344 C 206.609375 65.511719 200.300781 52.898438 188.628906 41.226562 C 176.957031 29.554688 164.339844 23.246094 160.449219 27.136719 C 156.558594 31.027344 162.867188 43.640625 174.539062 55.316406 C 186.210938 66.988281 198.828125 73.296875 202.71875 69.402344 Z M 202.71875 69.402344 "/>
<path fill-rule="nonzero" fill="rgb(96.398926%, 52.101135%, 7.200623%)" fill-opacity="1" d="M 197.21875 19.921875 C 197.21875 14.421875 192.757812 9.960938 187.253906 9.960938 C 181.753906 9.960938 177.292969 14.421875 177.292969 19.921875 C 177.292969 25.425781 181.753906 29.886719 187.253906 29.886719 C 192.757812 29.886719 197.21875 25.425781 197.21875 19.921875 Z M 197.21875 19.921875 "/>
<path fill-rule="nonzero" fill="rgb(94.598389%, 30.700684%, 10.801697%)" fill-opacity="1" d="M 199.195312 65.882812 C 202.113281 62.964844 196.59375 52.714844 186.867188 42.988281 C 177.140625 33.257812 166.890625 27.738281 163.972656 30.65625 C 161.054688 33.574219 166.574219 43.828125 176.300781 53.554688 C 186.027344 63.28125 196.277344 68.800781 199.195312 65.882812 Z M 199.195312 65.882812 "/>
<path fill-rule="nonzero" fill="rgb(94.598389%, 30.700684%, 10.801697%)" fill-opacity="1" d="M 192.234375 19.921875 C 192.234375 17.171875 190.003906 14.941406 187.253906 14.941406 C 184.503906 14.941406 182.273438 17.171875 182.273438 19.921875 C 182.273438 22.675781 184.503906 24.90625 187.253906 24.90625 C 190.003906 24.90625 192.234375 22.675781 192.234375 19.921875 Z M 192.234375 19.921875 "/>
<path fill-rule="nonzero" fill="rgb(92.939758%, 10.978699%, 14.118958%)" fill-opacity="1" d="M 193.914062 60.597656 C 195.746094 58.765625 191.714844 51.757812 184.90625 44.949219 C 178.097656 38.140625 171.089844 34.109375 169.257812 35.941406 C 167.421875 37.777344 171.457031 44.78125 178.265625 51.589844 C 185.074219 58.398438 192.078125 62.433594 193.914062 60.597656 Z M 193.914062 60.597656 "/>
<path fill-rule="nonzero" fill="rgb(92.939758%, 10.978699%, 14.118958%)" fill-opacity="1" d="M 191.949219 19.921875 C 191.949219 17.328125 189.847656 15.226562 187.253906 15.226562 C 184.660156 15.226562 182.558594 17.328125 182.558594 19.921875 C 182.558594 22.515625 184.660156 24.617188 187.253906 24.617188 C 189.847656 24.617188 191.949219 22.515625 191.949219 19.921875 Z M 191.949219 19.921875 "/>
<path fill-rule="nonzero" fill="rgb(93.75%, 93.75%, 93.75%)" fill-opacity="1" d="M 153.070312 133.144531 C 163.769531 122.441406 159.828125 101.152344 144.265625 85.589844 C 128.703125 70.027344 107.410156 66.085938 96.710938 76.785156 C 86.011719 87.484375 89.957031 108.773438 105.519531 124.335938 C 121.082031 139.898438 142.371094 143.84375 153.070312 133.144531 Z M 153.070312 133.144531 "/>
<path fill-rule="nonzero" fill="rgb(93.75%, 93.75%, 93.75%)" fill-opacity="1" d="M 137.34375 79.453125 C 137.34375 72.574219 131.769531 67 124.890625 67 C 118.011719 67 112.4375 72.574219 112.4375 79.453125 C 112.4375 86.328125 118.011719 91.90625 124.890625 91.90625 C 131.769531 91.90625 137.34375 86.328125 137.34375 79.453125 Z M 137.34375 79.453125 "/>
<path fill-rule="nonzero" fill="rgb(87.5%, 87.5%, 87.5%)" fill-opacity="1" d="M 149.546875 129.621094 C 158.300781 120.867188 154.359375 102.730469 140.742188 89.113281 C 127.125 75.496094 108.988281 71.554688 100.234375 80.308594 C 91.480469 89.0625 95.421875 107.195312 109.039062 120.8125 C 122.660156 134.433594 140.792969 138.375 149.546875 129.621094 Z M 149.546875 129.621094 "/>
<path fill-rule="nonzero" fill="rgb(87.5%, 87.5%, 87.5%)" fill-opacity="1" d="M 134.855469 79.453125 C 134.855469 73.949219 130.394531 69.488281 124.890625 69.488281 C 119.390625 69.488281 114.929688 73.949219 114.929688 79.453125 C 114.929688 84.953125 119.390625 89.414062 124.890625 89.414062 C 130.394531 89.414062 134.855469 84.953125 134.855469 79.453125 Z M 134.855469 79.453125 "/>
<path fill-rule="nonzero" fill="rgb(75%, 75%, 75%)" fill-opacity="1" d="M 146.027344 126.097656 C 152.835938 119.289062 148.890625 104.308594 137.21875 92.636719 C 125.546875 80.964844 110.566406 77.019531 103.757812 83.828125 C 96.949219 90.636719 100.890625 105.621094 112.5625 117.292969 C 124.234375 128.964844 139.21875 132.90625 146.027344 126.097656 Z M 146.027344 126.097656 "/>
<path fill-rule="nonzero" fill="rgb(75%, 75%, 75%)" fill-opacity="1" d="M 132.363281 79.453125 C 132.363281 75.324219 129.019531 71.980469 124.890625 71.980469 C 120.765625 71.980469 117.417969 75.324219 117.417969 79.453125 C 117.417969 83.578125 120.765625 86.921875 124.890625 86.921875 C 129.019531 86.921875 132.363281 83.578125 132.363281 79.453125 Z M 132.363281 79.453125 "/>
<path fill-rule="nonzero" fill="rgb(62.5%, 62.5%, 62.5%)" fill-opacity="1" d="M 142.503906 122.574219 C 147.367188 117.710938 143.425781 105.882812 133.699219 96.15625 C 123.96875 86.429688 112.144531 82.488281 107.28125 87.351562 C 102.417969 92.214844 106.359375 104.042969 116.085938 113.769531 C 125.8125 123.496094 137.640625 127.4375 142.503906 122.574219 Z M 142.503906 122.574219 "/>
<path fill-rule="nonzero" fill="rgb(62.5%, 62.5%, 62.5%)" fill-opacity="1" d="M 129.871094 79.453125 C 129.871094 76.699219 127.644531 74.46875 124.890625 74.46875 C 122.140625 74.46875 119.910156 76.699219 119.910156 79.453125 C 119.910156 82.203125 122.140625 84.433594 124.890625 84.433594 C 127.644531 84.433594 129.871094 82.203125 129.871094 79.453125 Z M 129.871094 79.453125 "/>
<path fill-rule="nonzero" fill="rgb(50%, 50%, 50%)" fill-opacity="1" d="M 137.21875 117.292969 C 140.136719 114.375 136.984375 106.488281 130.175781 99.679688 C 123.367188 92.871094 115.480469 89.71875 112.5625 92.636719 C 109.644531 95.554688 112.800781 103.4375 119.609375 110.246094 C 126.417969 117.054688 134.300781 120.210938 137.21875 117.292969 Z M 137.21875 117.292969 "/>
<path fill-rule="nonzero" fill="rgb(50%, 50%, 50%)" fill-opacity="1" d="M 129.585938 79.453125 C 129.585938 76.859375 127.484375 74.753906 124.890625 74.753906 C 122.296875 74.753906 120.195312 76.859375 120.195312 79.453125 C 120.195312 82.046875 122.296875 84.148438 124.890625 84.148438 C 127.484375 84.148438 129.585938 82.046875 129.585938 79.453125 Z M 129.585938 79.453125 "/>
<path fill-rule="nonzero" fill="rgb(0%, 0%, 0%)" fill-opacity="1" d="M 70.191406 175.832031 C 70.191406 174.730469 69.296875 173.839844 68.199219 173.839844 C 67.097656 173.839844 66.207031 174.730469 66.207031 175.832031 C 66.207031 176.929688 67.097656 177.824219 68.199219 177.824219 C 69.296875 177.824219 70.191406 176.929688 70.191406 175.832031 Z M 70.191406 175.832031 "/>
<path fill-rule="nonzero" fill="rgb(0%, 0%, 0%)" fill-opacity="1" d="M 192.082031 39.765625 C 192.082031 38.664062 191.191406 37.773438 190.089844 37.773438 C 188.988281 37.773438 188.097656 38.664062 188.097656 39.765625 C 188.097656 40.867188 188.988281 41.757812 190.089844 41.757812 C 191.191406 41.757812 192.082031 40.867188 192.082031 39.765625 Z M 192.082031 39.765625 "/>
<path fill-rule="nonzero" fill="rgb(0%, 0%, 0%)" fill-opacity="1" d="M 143.890625 93.625 C 143.890625 92.523438 143 91.632812 141.898438 91.632812 C 140.800781 91.632812 139.90625 92.523438 139.90625 93.625 C 139.90625 94.726562 140.800781 95.617188 141.898438 95.617188 C 143 95.617188 143.890625 94.726562 143.890625 93.625 Z M 143.890625 93.625 "/>
<path fill="none" stroke-width="0.79701" stroke-linecap="butt" stroke-linejoin="miter" stroke="rgb(0%, 0%, 0%)" stroke-opacity="1" stroke-miterlimit="10" d="M 29.809156 15.804781 L 100.5865 94.746188 M 103.508375 98.011813 L 146.035719 145.543063 " transform="matrix(1, 0, 0, -1, 39.851, 190.004)"/>
<path fill-rule="nonzero" fill="rgb(0%, 0%, 0%)" fill-opacity="1" stroke-width="0.79701" stroke-linecap="butt" stroke-linejoin="miter" stroke="rgb(0%, 0%, 0%)" stroke-opacity="1" stroke-miterlimit="10" d="M 5.439686 -0.000843423 L 1.285976 1.571704 L 2.664973 0.00116262 L 1.288411 -1.571203 Z M 5.439686 -0.000843423 " transform="matrix(0.66676, -0.74521, -0.74521, -0.66676, 184.2435, 46.29924)"/>
</svg>
