<?xml version="1.0" encoding="UTF-8"?>
<svg xmlns="http://www.w3.org/2000/svg" xmlns:xlink="http://www.w3.org/1999/xlink" width="216.57" height="229.855" viewBox="0 0 216.57 229.855">
<defs>
<clipPath id="clip-0">
<path clip-rule="nonzero" d="M 0 150 L 80 150 L 80 229.855469 L 0 229.855469 Z M 0 150 "/>
</clipPath>
</defs>
<g clip-path="url(#clip-0)">
<path fill-rule="nonzero" fill="rgb(76.460266%, 90.023804%, 97.341919%)" fill-opacity="1" d="M 79.703125 190.003906 C 79.703125 167.996094 61.859375 150.152344 39.851562 150.152344 C 17.839844 150.152344 0 167.996094 0 190.003906 C 0 212.011719 17.839844 229.855469 39.851562 229.855469 C 61.859375 229.855469 79.703125 212.011719 79.703125 190.003906 Z M 79.703125 190.003906 "/>
</g>
<path fill-rule="nonzero" fill="rgb(53.250122%, 80.712891%, 94.795227%)" fill-opacity="1" d="M 74.71875 190.003906 C 74.71875 170.746094 59.109375 155.132812 39.851562 155.132812 C 20.59375 155.132812 4.980469 170.746094 4.980469 190.003906 C 4.980469 209.261719 20.59375 224.875 39.851562 224.875 C 59.109375 224.875 74.71875 209.261719 74.71875 190.003906 Z M 74.71875 190.003906 "/>
<path fill-rule="nonzero" fill="rgb(7.817078%, 64.082336%, 90.036011%)" fill-opacity="1" d="M 69.738281 190.003906 C 69.738281 173.496094 56.359375 160.117188 39.851562 160.117188 C 23.34375 160.117188 9.960938 173.496094 9.960938 190.003906 C 9.960938 206.511719 23.34375 219.890625 39.851562 219.890625 C 56.359375 219.890625 69.738281 206.511719 69.738281 190.003906 Z M 69.738281 190.003906 "/>
<path fill-rule="nonzero" fill="rgb(3.967285%, 57.144165%, 85.704041%)" fill-opacity="1" d="M 64.757812 190.003906 C 64.757812 176.25 53.605469 165.097656 39.851562 165.097656 C 26.09375 165.097656 14.945312 176.25 14.945312 190.003906 C 14.945312 203.761719 26.09375 214.910156 39.851562 214.910156 C 53.605469 214.910156 64.757812 203.761719 64.757812 190.003906 Z M 64.757812 190.003906 "/>
<path fill-rule="nonzero" fill="rgb(5.059814%, 54.202271%, 83.49762%)" fill-opacity="1" d="M 52.304688 190.003906 C 52.304688 183.125 46.730469 177.550781 39.851562 177.550781 C 32.972656 177.550781 27.398438 183.125 27.398438 190.003906 C 27.398438 196.882812 32.972656 202.457031 39.851562 202.457031 C 46.730469 202.457031 52.304688 196.882812 52.304688 190.003906 Z M 52.304688 190.003906 "/>
<path fill-rule="nonzero" fill="rgb(99.061584%, 86.488342%, 71.136475%)" fill-opacity="1" d="M 209.765625 76.449219 C 216.574219 69.640625 209.476562 51.503906 193.914062 35.941406 C 178.351562 20.378906 160.214844 13.28125 153.40625 20.089844 C 146.597656 26.898438 153.695312 45.035156 169.257812 60.597656 C 184.820312 76.160156 202.957031 83.257812 209.765625 76.449219 Z M 209.765625 76.449219 "/>
<path fill-rule="nonzero" fill="rgb(99.061584%, 86.488342%, 71.136475%)" fill-opacity="1" d="M 207.179688 19.921875 C 207.179688 8.917969 198.257812 -0.00390625 187.253906 -0.00390625 C 176.25 -0.00390625 167.328125 8.917969 167.328125 19.921875 C 167.328125 30.929688 176.25 39.847656 187.253906 39.847656 C 198.257812 39.847656 207.179688 30.929688 207.179688 19.921875 Z M 207.179688 19.921875 "/>
<path fill-rule="nonzero" fill="rgb(98.149109%, 74.000549%, 46.0495%)" fill-opacity="1" d="M 206.242188 72.925781 C 211.105469 68.0625 204.007812 53.082031 190.390625 39.464844 C 176.773438 25.847656 161.792969 18.75 156.929688 23.613281 C 152.066406 28.476562 159.160156 43.457031 172.777344 57.074219 C 186.398438 70.695312 201.378906 77.789062 206.242188 72.925781 Z M 206.242188 72.925781 "/>
<path fill-rule="nonzero" fill="rgb(98.149109%, 74.000549%, 46.0495%)" fill-opacity="1" d="M 202.199219 19.921875 C 202.199219 11.667969 195.507812 4.980469 187.253906 4.980469 C 179 4.980469 172.308594 11.667969 172.308594 19.921875 C 172.308594 28.175781 179 34.867188 187.253906 34.867188 C 195.507812 34.867188 202.199219 28.175781 202.199219 19.921875 Z M 202.199219 19.921875 "/>
<path fill-rule="nonzero" fill="rgb(96.398926%, 52.101135%, 7.200623%)" fill-opacity="1" d="M 202.71875 69.402344 C 206.609375 65.511719 200.300781 52.898438 188.628906 41.226562 C 176.957031 29.554688 164.339844 23.246094 160.449219 27.136719 C 156.558594 31.027344 162.867188 43.640625 174.539062 55.316406 C 186.210938 66.988281 198.828125 73.296875 202.71875 69.402344 Z M 202.71875 69.402344 "/>
<path fill-rule="nonzero" fill="rgb(96.398926%, 52.101135%, 7.200623%)" fill-opacity="1" d="M 197.21875 19.921875 C 197.21875 14.421875 192.757812 9.960938 187.253906 9.960938 C 181.753906 9.960938 177.292969 14.421875 177.292969 19.921875 C 177.292969 25.425781 181.753906 29.886719 187.253906 29.886719 C 192.757812 29.886719 197.21875 25.425781 197.21875 19.921875 Z M 197.21875 19.921875 "/>
<path fill-rule="nonzero" fill="rgb(94.598389%, 30.700684%, 10.801697%)" fill-opacity="1" d="M 199.195312 65.882812 C 202.113281 62.964844 196.59375 52.714844 186.867188 42.988281 C 177.140625 33.257812 166.890625 27.738281 163.972656 30.65625 C 161.054688 33.574219 166.574219 43.828125 176.300781 53.554688 C 186.027344 63.28125 196.277344 68.800781 199.195312 65.882812 Z M 199.195312 65.882812 "/>
<path fill-rule="nonzero" fill="rgb(94.598389%, 30.700684%, 10.801697%)" fill-opacity="1" d="M 192.234375 19.921875 C 192.234375 17.171875 190.003906 14.941406 187.253906 14.941406 C 184.503906 14.941406 182.273438 17.171875 182.273438 19.921875 C 182.273438 22.675781 184.503906 24.90625 187.253906 24.90625 C 190.003906 24.90625 192.234375 22.675781 192.234375 19.921875 Z M 192.234375 19.921875 "/>
<path fill-rule="nonzero" fill="rgb(92.939758%, 10.978699%, 14.118958%)" fill-opacity="1" d="M 193.914062 60.597656 C 195.746094 58.765625 191.714844 51.757812 184.90625 44.949219 C 178.097656 38.140625 171.089844 34.109375 169.257812 35.941406 C 167.421875 37.777344 171.457031 44.78125 178.265625 51.589844 C 185.074219 58.398438 192.078125 62.433594 193.914062 60.597656 Z M 193.914062 60.597656 "/>
<path fill-rule="nonzero" fill="rgb(92.939758%, 10.978699%, 14.118958%)" fill-opacity="1" d="M 191.949219 19.921875 C 191.949219 17.328125 189.847656 15.226562 187.253906 15.226562 C 184.660156 15.226562 182.558594 17.328125 182.558594 19.921875 C 182.558594 22.515625 184.660156 24.617188 187.253906 24.617188 C 189.847656 24.617188 191.949219 22.515625 191.949219 19.921875 Z M 191.949219 19.921875 "/>
</svg>
